<svg width="200" height="198" viewBox="0 0 200 198" fill="none" xmlns="http://www.w3.org/2000/svg">
<path d="M122.998 94.885C122.63 93.7477 122.109 92.6656 121.45 91.6684C121.116 91.1707 120.685 90.7457 120.182 90.419C119.68 90.0924 119.116 89.8708 118.526 89.7676C117.343 89.6214 116.027 90.2622 115.64 91.3932C115.472 88.8431 115.111 86.2328 113.834 84.0181C112.557 81.8034 110.179 80.0704 107.633 80.2252C105.229 80.3714 103.173 82.156 102.042 84.2761C100.911 86.3962 100.507 88.8259 100.129 91.204C99.2214 90.0859 97.2949 90.4342 96.3445 91.5222C95.3941 92.6102 95.1533 94.1024 94.9512 95.5473L123.333 95.844L122.998 94.885Z" fill="#EBEBEB"/>
<path d="M199.664 60.2888C199.298 59.1508 198.777 58.0685 198.116 57.0722C197.782 56.5745 197.351 56.1495 196.848 55.8228C196.346 55.4962 195.782 55.2746 195.192 55.1714C194.009 55.0252 192.693 55.666 192.306 56.797C192.138 54.2469 191.777 51.6366 190.5 49.4219C189.223 47.2072 186.845 45.4742 184.299 45.629C181.895 45.7752 179.839 47.5599 178.708 49.6799C177.577 51.8 177.173 54.2297 176.795 56.6078C175.887 55.4897 173.961 55.838 173.011 56.926C172.06 58.014 171.819 59.5062 171.617 60.9511L199.999 61.2478L199.664 60.2888Z" fill="#EBEBEB"/>
<path d="M191.193 140.43C190.449 138.452 189.697 136.448 188.45 134.741C187.203 133.033 185.384 131.636 183.289 131.382C181.195 131.128 178.869 132.242 178.185 134.255C177.884 129.752 177.247 125.129 174.994 121.216C172.741 117.303 168.544 114.237 164.024 114.512C159.775 114.77 156.137 117.926 154.133 121.672C152.129 125.417 151.42 129.713 150.757 133.919C149.145 131.945 145.743 132.565 144.062 134.483C142.38 136.401 141.959 139.075 141.598 141.6L191.8 142.124L191.193 140.43Z" fill="#EBEBEB"/>
<path d="M43.975 78.8405C43.5084 77.4068 42.8502 76.0427 42.0183 74.7853C41.1281 73.5683 39.8294 72.5706 38.3329 72.39C36.8364 72.2094 35.1851 73.0135 34.6948 74.4369C34.4798 71.2246 34.024 67.9305 32.42 65.1396C30.8159 62.3487 27.81 60.1598 24.5976 60.3576C21.5874 60.5426 18.9728 62.7959 17.5322 65.4664C16.0916 68.137 15.597 71.1988 15.124 74.2004C13.9758 72.7899 11.5504 73.2328 10.3506 74.6003C9.15084 75.9679 8.84982 77.8772 8.5918 79.6747L44.3878 80.0489L43.975 78.8405Z" fill="#EBEBEB"/>
<path d="M73.058 192.421C72.357 190.546 71.6389 188.645 70.4778 187.028C69.3167 185.411 67.5707 184.091 65.584 183.846C63.5972 183.601 61.3955 184.676 60.7461 186.568C60.4623 182.302 59.8559 177.92 57.7359 174.213C55.6158 170.506 51.6122 167.595 47.342 167.857C43.3125 168.102 39.868 171.091 37.95 174.643C36.0321 178.195 35.3698 182.268 34.7506 186.254C33.224 184.379 30.0202 184.964 28.4076 186.783C26.795 188.602 26.3692 191.139 26.0166 193.535L73.5998 194.029L73.058 192.421Z" fill="#EBEBEB"/>
<path d="M184.438 100.819C184.142 99.9073 183.723 99.0394 183.195 98.2393C182.928 97.8418 182.584 97.5024 182.182 97.2415C181.781 96.9807 181.331 96.8037 180.86 96.7213C180.387 96.6527 179.904 96.7419 179.487 96.9751C179.069 97.2083 178.74 97.5725 178.55 98.0114C178.417 95.9773 178.12 93.8873 177.106 92.1156C176.091 90.3439 174.186 88.9591 172.147 89.0839C170.225 89.2 168.582 90.6277 167.666 92.322C166.75 94.0163 166.441 95.9601 166.14 97.8608C165.409 96.9664 163.873 97.2502 163.129 98.1146C162.385 98.9789 162.175 100.196 162.016 101.336L184.717 101.572L184.438 100.819Z" fill="#F5F5F5"/>
<path d="M108.923 124.729C108.628 123.817 108.21 122.949 107.68 122.149C107.414 121.751 107.07 121.411 106.668 121.149C106.267 120.887 105.817 120.71 105.345 120.627C104.871 120.554 104.387 120.641 103.969 120.875C103.55 121.109 103.222 121.475 103.036 121.917C102.902 119.879 102.606 117.789 101.591 116.021C100.576 114.254 98.6709 112.86 96.6326 112.985C94.7103 113.101 93.0676 114.529 92.1516 116.223C91.2356 117.918 90.926 119.861 90.625 121.762C89.8939 120.868 88.3587 121.152 87.6148 122.016C86.8708 122.88 86.6601 124.097 86.501 125.237L109.202 125.473L108.923 124.729Z" fill="#F5F5F5"/>
<path d="M179.329 168.232C179.034 167.32 178.617 166.452 178.09 165.651C177.823 165.254 177.478 164.915 177.077 164.655C176.676 164.394 176.226 164.216 175.755 164.133C175.281 164.06 174.797 164.148 174.379 164.381C173.96 164.615 173.632 164.982 173.446 165.423C173.308 163.385 173.016 161.295 172.001 159.528C170.986 157.76 169.077 156.371 167.043 156.496C165.12 156.612 163.473 158.04 162.562 159.734C161.65 161.428 161.332 163.372 161.031 165.273C160.304 164.378 158.764 164.658 158.02 165.527C157.276 166.395 157.066 167.604 156.902 168.748L179.608 168.984L179.329 168.232Z" fill="#F5F5F5"/>
<path d="M113.399 197.117C113.105 196.204 112.687 195.336 112.157 194.537C111.891 194.138 111.547 193.798 111.145 193.536C110.744 193.274 110.294 193.097 109.822 193.014C109.349 192.942 108.865 193.03 108.448 193.264C108.03 193.497 107.703 193.864 107.517 194.304C107.379 192.266 107.087 190.176 106.072 188.409C105.057 186.641 103.147 185.248 101.109 185.373C99.1869 185.489 97.5442 186.916 96.6282 188.611C95.7122 190.305 95.4026 192.249 95.1016 194.15C94.3748 193.259 92.8353 193.539 92.0913 194.403C91.3474 195.268 91.141 196.485 90.9775 197.624L113.679 197.861L113.399 197.117Z" fill="#F5F5F5"/>
<path d="M144.513 24.2864C143.937 22.7512 143.352 21.1945 142.385 19.87C141.417 18.5455 140.002 17.4618 138.377 17.264C136.751 17.0662 134.937 17.9434 134.416 19.4916C134.18 15.9997 133.685 12.4132 131.935 9.37717C130.185 6.34114 126.921 3.95875 123.425 4.16947C120.126 4.37159 117.305 6.82278 115.736 9.7298C114.166 12.6368 113.628 15.9696 113.112 19.2335C111.865 17.6983 109.242 18.18 107.922 19.6636C106.602 21.1472 106.283 23.2415 106.004 25.1938L144.961 25.6023L144.513 24.2864Z" fill="#F5F5F5"/>
<path d="M22.4219 145.956C22.1289 145.042 21.7107 144.174 21.1792 143.376C20.9132 142.977 20.5692 142.637 20.1678 142.375C19.7664 142.113 19.3161 141.936 18.8441 141.853C18.3711 141.781 17.8876 141.869 17.4701 142.103C17.0526 142.336 16.725 142.703 16.5391 143.143C16.4015 141.105 16.1091 139.015 15.0942 137.248C14.0793 135.48 12.1699 134.087 10.1316 134.212C8.21364 134.328 6.56661 135.755 5.65064 137.45C4.73467 139.144 4.42505 141.088 4.12402 142.989C3.39726 142.094 1.85774 142.378 1.11379 143.242C0.369829 144.107 0.163413 145.324 0 146.463L22.7015 146.7L22.4219 145.956Z" fill="#F5F5F5"/>
<path d="M124.495 65.6342C124.495 65.6342 124.495 65.6987 124.525 65.832C124.555 65.9653 124.568 66.1717 124.598 66.4254C124.658 66.9544 124.744 67.7155 124.856 68.7003C124.968 69.6851 125.093 70.8978 125.26 72.2954C125.428 73.693 125.604 75.3056 125.832 77.0601C126.262 80.5864 126.817 84.7792 127.484 89.4322C128.15 94.0852 128.959 99.1854 129.87 104.526C130.782 109.867 131.741 114.95 132.648 119.578C133.556 124.205 134.429 128.329 135.194 131.799C135.96 135.269 136.592 138.073 137.043 140.008C137.263 140.972 137.435 141.729 137.555 142.24C137.607 142.49 137.65 142.67 137.68 142.821C137.71 142.971 137.718 143.023 137.718 143.023C137.695 142.96 137.675 142.895 137.658 142.829C137.624 142.688 137.572 142.498 137.508 142.253C137.383 141.733 137.198 140.989 136.957 140.03C136.48 138.103 135.822 135.3 135.039 131.834C134.257 128.367 133.375 124.226 132.459 119.621C131.543 115.015 130.58 109.932 129.66 104.569C128.739 99.2069 127.935 94.111 127.264 89.4666C126.593 84.8222 126.065 80.6122 125.656 77.0816C125.441 75.3185 125.273 73.7188 125.118 72.3169C124.964 70.915 124.843 69.7023 124.749 68.7132C124.654 67.7241 124.585 66.963 124.538 66.434C124.515 66.1817 124.498 65.9839 124.486 65.8406C124.495 65.703 124.495 65.6342 124.495 65.6342Z" fill="#263238"/>
<path d="M128.296 101.366C118.835 98.7596 109.757 91.3071 103.122 84.1084C96.4866 76.9096 92.5217 66.9371 93.8075 57.2141C95.0933 47.491 102.167 38.4603 111.671 36.0994C121.85 33.5708 132.949 39.0882 138.763 47.8049C144.577 56.5217 144.272 69.784 140.544 79.5887C136.338 90.6621 135.284 94.2357 128.279 101.353" fill="#455A64"/>
<g opacity="0.3">
<path d="M130.309 39.6043L128.112 38.3142C125.867 43.0876 125.321 48.5576 126.039 53.7954C126.757 59.0332 128.701 64.0259 131.199 68.666C133.616 73.134 135.882 79.176 139.288 82.9431L143.09 72.7169C143.09 72.7169 132.502 40.8729 130.309 39.6043Z" fill="black"/>
</g>
<path d="M132.343 102.316C130.809 101.432 129.54 100.152 128.671 98.6091L127.991 99.7702C127.174 100.983 126.921 103.877 126.964 105.335C126.964 105.765 127.097 106.268 127.501 106.388C127.905 106.509 128.327 106.087 128.486 105.666C128.573 105.225 128.755 104.808 129.019 104.445C129.08 104.912 129.245 105.36 129.501 105.756C129.617 105.97 129.809 106.132 130.04 106.211C130.27 106.289 130.521 106.278 130.744 106.179C130.966 106.08 131.143 105.902 131.24 105.678C131.336 105.455 131.345 105.203 131.264 104.974C131.141 104.511 130.916 104.082 130.606 103.718C131.028 104.13 131.554 104.418 132.128 104.552C132.713 104.634 133.397 104.273 133.44 103.692C133.483 103.112 132.868 102.643 132.343 102.316Z" fill="#455A64"/>
<path d="M129.857 99.7186C129.991 99.7745 129.685 100.54 128.817 100.931C127.948 101.323 127.17 101.052 127.221 100.931C127.273 100.811 127.901 100.781 128.593 100.454C129.285 100.127 129.724 99.6369 129.857 99.7186Z" fill="#263238"/>
<g opacity="0.2">
<path d="M137.887 52.7289C137.624 52.6369 137.343 52.6101 137.067 52.6508C136.792 52.6915 136.53 52.7986 136.305 52.9627C136.08 53.1268 135.898 53.3431 135.775 53.593C135.652 53.843 135.592 54.119 135.599 54.3974V54.3329C135.643 55.3808 135.938 56.4029 136.459 57.313C137.014 58.1473 138.179 58.6591 139.039 58.1731C139.9 57.6872 140.05 56.4057 139.835 55.3951C139.594 54.2598 138.975 53.103 137.887 52.7289Z" fill="black"/>
</g>
<path d="M102.748 42.6489C102.748 42.6489 102.696 42.7263 102.576 42.8553L102.051 43.4101L101.669 43.8057C101.531 43.9519 101.398 44.1239 101.239 44.3003C100.938 44.6615 100.572 45.0528 100.232 45.5388L99.6819 46.2827C99.4927 46.545 99.3207 46.8332 99.1315 47.1213C98.7358 47.6932 98.3961 48.3555 98.0134 49.0349C97.2443 50.5423 96.6152 52.1171 96.1341 53.7395C95.6809 55.3707 95.3815 57.0408 95.2397 58.7279C95.201 59.5062 95.1451 60.2459 95.1752 60.9383C95.1752 61.2866 95.1752 61.622 95.1752 61.9445C95.1752 62.2671 95.2268 62.5724 95.2483 62.8691C95.2784 63.4582 95.3816 63.9829 95.4461 64.4473C95.4805 64.6795 95.5063 64.8989 95.545 65.0967C95.5837 65.2945 95.6267 65.4708 95.6611 65.6342C95.7213 65.9352 95.7729 66.1804 95.8116 66.3825C95.8363 66.4692 95.8493 66.5589 95.8503 66.6491C95.8107 66.5682 95.7804 66.4831 95.76 66.3954C95.7084 66.1976 95.6396 65.9653 95.5579 65.6557C95.5149 65.4923 95.4676 65.316 95.4203 65.1225C95.373 64.929 95.3429 64.6924 95.2999 64.4731C95.1932 63.9485 95.1128 63.4189 95.059 62.8863C95.0275 62.5996 94.9974 62.29 94.9687 61.9574C94.9386 61.6349 94.9429 61.2952 94.93 60.9426C94.887 60.2416 94.93 59.4976 94.9687 58.7064C95.2055 55.2831 96.1608 51.9482 97.7726 48.9188C98.1639 48.2351 98.5165 47.5728 98.925 47.0009C99.1186 46.7127 99.2949 46.4203 99.4927 46.1623L100.065 45.4226C100.389 44.9971 100.737 44.5894 101.105 44.2013C101.264 44.0293 101.406 43.8616 101.535 43.7154L101.94 43.337L102.503 42.8166C102.577 42.7509 102.66 42.6946 102.748 42.6489Z" fill="white"/>
<path d="M110.197 38.8216C110.227 38.8904 109.306 39.3635 108.145 39.8795C106.984 40.3956 105.995 40.7654 105.995 40.6966C105.995 40.6278 106.881 40.1547 108.046 39.6344C109.212 39.1141 110.166 38.7528 110.197 38.8216Z" fill="white"/>
<g opacity="0.1">
<path d="M104.859 43.5433C96.3402 51.2022 95.2178 61.9659 100.163 72.3039C101.737 75.598 104.115 78.6813 107.758 79.8166C108.718 80.1225 109.73 80.2336 110.733 80.1435C115.812 79.6747 117.567 74.9357 117.33 70.7644C117.158 67.6811 116.105 64.7182 115.55 61.6778C114.995 58.6375 115.008 55.2746 116.741 52.7202C118.474 50.1658 121.794 48.5532 121.437 45.0613C121.325 44.2319 121.022 43.4398 120.552 42.7473C120.082 42.0548 119.457 41.4809 118.728 41.0706C117.607 40.4121 116.354 40.0084 115.06 39.888C111.757 39.5989 108.473 40.6129 105.908 42.7133L104.859 43.5433Z" fill="white"/>
</g>
<path d="M152.301 64.9547C152.361 64.9547 149.105 82.6377 145.029 104.415C140.952 126.191 137.602 143.844 137.542 143.836C137.482 143.827 140.733 126.157 144.809 104.372C148.886 82.5861 152.24 64.9547 152.301 64.9547Z" fill="#263238"/>
<path d="M147.717 86.7402C139.31 79.1114 133.792 66.6447 130.687 55.7262C127.583 44.8076 128.692 32.4184 135.1 23.0436C141.507 13.6689 153.552 7.99248 164.621 10.5297C176.477 13.2346 185.078 24.7466 186.553 36.8176C188.028 48.8887 180.773 62.439 171.799 70.6355C161.654 79.8941 158.7 83.0419 147.717 86.7402Z" fill="#DDB4E4"/>
<path d="M151.414 89.8408C150.352 88.0991 149.565 86.1296 149.552 84.0869L148.262 84.947C146.783 85.7726 145.007 88.6367 144.289 90.1676C144.078 90.5976 143.936 91.204 144.289 91.5394C144.641 91.8748 145.304 91.6598 145.686 91.3072C146.069 90.9545 146.383 90.4815 146.878 90.3224C146.697 90.8381 146.634 91.3875 146.693 91.9307C146.699 92.2144 146.812 92.4851 147.01 92.6885C147.208 92.8919 147.475 93.0129 147.759 93.027C148.042 93.0412 148.32 92.9475 148.537 92.7649C148.754 92.5822 148.894 92.3241 148.929 92.0425C149.041 91.4981 149.031 90.9355 148.899 90.3955C149.121 91.043 149.515 91.6182 150.038 92.0597C150.602 92.4468 151.5 92.4339 151.849 91.849C152.197 91.2642 151.784 90.4557 151.414 89.8408Z" fill="#DDB4E4"/>
<path d="M150.197 85.8543C150.309 85.9833 149.591 86.6198 148.477 86.5682C147.364 86.5166 146.714 85.8328 146.835 85.7081C146.955 85.5834 147.617 85.9102 148.507 85.9317C149.398 85.9532 150.103 85.6995 150.197 85.8543Z" fill="#263238"/>
<g opacity="0.2">
<path d="M180.503 52.3934C180.233 52.1182 179.887 51.9302 179.509 51.8536C179.131 51.777 178.739 51.8152 178.383 51.9634C177.007 52.5052 176.405 53.8254 175.803 55.0467C170.779 64.9565 162.094 72.5205 151.588 76.1355C150.074 76.6473 148.255 77.3912 148.074 78.9738C147.945 80.1521 148.896 81.2314 150.005 81.6486C150.985 81.9942 152.037 82.0874 153.063 81.9195C154.117 81.7643 155.131 81.4034 156.047 80.8573C166.918 74.4541 173.799 66.95 180.176 55.8853C180.804 54.8059 181.389 53.3438 180.503 52.3934Z" fill="black"/>
</g>
<g opacity="0.2">
<path d="M183.07 41.4275C182.848 41.1916 182.571 41.0138 182.263 40.9097C181.956 40.8057 181.628 40.7786 181.308 40.8308C180.988 40.883 180.686 41.0129 180.428 41.2092C180.169 41.4054 179.963 41.662 179.828 41.9565L179.849 41.8834C179.419 42.9627 179.041 44.2657 179.178 45.4139C179.316 46.5621 180.262 47.7103 181.419 47.6458C182.575 47.5813 183.388 46.3557 183.694 45.186C184.033 43.883 183.999 42.3779 183.07 41.4275Z" fill="black"/>
</g>
<path d="M151.974 12.6283C151.885 12.6811 151.789 12.723 151.69 12.753L150.856 13.0497L150.254 13.2604C150.034 13.3422 149.824 13.4454 149.553 13.5529C149.054 13.7679 148.469 13.9829 147.867 14.3054L146.908 14.7871C146.573 14.9591 146.246 15.1698 145.897 15.3676C145.192 15.7546 144.491 16.2578 143.747 16.7652C140.544 19.063 137.843 21.9894 135.809 25.3659C135.379 26.1486 134.914 26.8882 134.583 27.6193C134.411 27.9848 134.226 28.3288 134.084 28.6728C133.943 29.0169 133.805 29.348 133.654 29.6662C133.379 30.2941 133.224 30.8918 133.031 31.3864C132.949 31.6444 132.863 31.8809 132.794 32.1045C132.726 32.3281 132.687 32.5345 132.635 32.7238C132.541 33.0649 132.463 33.3516 132.403 33.5838C132.383 33.6871 132.348 33.787 132.3 33.8806C132.302 33.776 132.316 33.672 132.343 33.5709C132.39 33.3387 132.446 33.0506 132.519 32.7109C132.558 32.5173 132.605 32.3109 132.652 32.083C132.7 31.8551 132.79 31.6143 132.867 31.352C133.03 30.7527 133.226 30.1627 133.452 29.5845L133.839 28.5739C133.981 28.2213 134.162 27.873 134.33 27.5032C134.652 26.7592 135.095 26.0109 135.542 25.2111C136.575 23.507 137.771 21.9082 139.116 20.4377C140.475 18.9941 141.969 17.685 143.58 16.5287C144.341 16.0256 145.055 15.5267 145.773 15.144C146.125 14.9505 146.461 14.7398 146.801 14.5763L147.777 14.1076C148.392 13.7937 148.985 13.5916 149.497 13.3895C149.755 13.2905 149.991 13.1959 150.211 13.1185L150.826 12.9379L151.686 12.6928C151.779 12.6603 151.876 12.6387 151.974 12.6283Z" fill="white"/>
<path d="M161.684 12.5594C161.684 12.6454 160.48 12.654 159.005 12.5852C157.53 12.5164 156.335 12.3831 156.339 12.2971C156.343 12.2111 157.543 12.1982 159.018 12.2713C160.493 12.3444 161.689 12.4906 161.684 12.5594Z" fill="white"/>
<g opacity="0.1">
<path d="M153.69 14.6408C140.871 18.1155 134.085 28.6685 133.801 41.9479C133.706 46.1837 134.558 50.6174 137.731 53.6964C138.565 54.5139 139.553 55.1571 140.638 55.5886C146.143 57.7602 150.435 53.7695 152.37 49.3359C153.806 46.0504 154.262 42.4339 155.281 39.0151C156.3 35.5963 158.059 32.1087 161.194 30.3671C164.329 28.6255 168.599 28.6986 170.053 24.8971C170.371 23.98 170.472 23.0015 170.348 22.0387C170.223 21.0759 169.876 20.1554 169.335 19.3497C168.521 18.0823 167.437 17.0103 166.161 16.2104C162.944 14.129 158.966 13.5829 155.212 14.3484L153.69 14.6408Z" fill="white"/>
</g>
<path d="M184.739 180.922C184.638 180.738 184.477 180.596 184.283 180.518C184.124 180.493 183.962 180.528 183.827 180.614C183.692 180.7 183.592 180.832 183.547 180.986C183.468 181.3 183.468 181.628 183.547 181.941C183.096 181.355 182.524 180.873 181.871 180.527C181.217 180.18 180.497 179.978 179.759 179.933C178.277 179.853 176.804 180.201 175.514 180.935C174.461 181.498 173.51 182.225 172.427 182.75C171.517 183.212 170.481 183.363 169.477 183.18L169.176 183.085C166.819 182.199 164.789 180.303 164.071 177.89C163.374 175.546 164.17 173.078 164.501 170.657C165.021 167.027 166.681 157.033 164.355 151.602L159.685 164.46C157.277 169.251 156.15 173.349 156.374 178.707C156.527 181.384 157.33 183.983 158.714 186.28C160.098 188.577 162.021 190.501 164.316 191.888C169.287 194.898 178.232 196.093 182.98 191.617L183.001 191.591C183.218 191.381 183.42 191.157 183.608 190.92C184.601 189.824 185.349 188.908 185.396 187.291C185.396 187.239 185.396 187.183 185.396 187.132C185.964 185.042 185.934 182.715 184.739 180.922Z" fill="#DDB4E4"/>
<path d="M178.373 186.224C178.373 186.224 178.373 186.276 178.3 186.357C178.222 186.482 178.136 186.601 178.042 186.714C177.688 187.139 177.272 187.507 176.808 187.807C176.102 188.264 175.328 188.61 174.516 188.83C173.493 189.104 172.453 189.306 171.403 189.436V189.226C172.498 189.447 173.575 189.753 174.623 190.142C175.381 190.426 176.123 190.751 176.847 191.114L177.148 191.264L176.817 191.32C174.734 191.668 172.613 191.718 170.517 191.471C169.734 191.376 169.115 191.26 168.689 191.165C168.478 191.122 168.319 191.075 168.207 191.049C168.15 191.039 168.095 191.021 168.044 190.993C168.266 191.011 168.488 191.043 168.706 191.088C169.136 191.161 169.751 191.251 170.53 191.329C172.613 191.529 174.714 191.453 176.778 191.101L176.748 191.307C176.031 190.952 175.296 190.633 174.546 190.352C173.508 189.969 172.443 189.663 171.36 189.436L170.757 189.307L171.368 189.226C172.412 189.103 173.446 188.912 174.464 188.654C175.264 188.446 176.029 188.123 176.735 187.695C177.361 187.302 177.915 186.804 178.373 186.224Z" fill="#263238"/>
<path d="M140.944 160.061C138.949 161.473 137.459 163.489 136.695 165.812C135.931 168.134 135.933 170.64 136.7 172.962C137.328 174.97 138.42 177.193 137.345 178.819C136.833 179.584 135.891 180.109 135.397 180.875C135.266 181.093 135.184 181.337 135.159 181.591C135.134 181.844 135.165 182.1 135.25 182.34C135.336 182.58 135.474 182.798 135.654 182.978C135.834 183.158 136.052 183.296 136.291 183.382C137.081 183.64 137.941 183.58 138.687 183.214C141.779 181.967 143.679 179.615 145.421 177.31C148.62 173.075 151.631 168.74 154.452 164.305L140.944 160.061Z" fill="#DDB4E4"/>
<g opacity="0.3">
<path d="M140.944 160.061C138.949 161.473 137.459 163.489 136.695 165.812C135.931 168.134 135.933 170.64 136.7 172.962C137.328 174.97 138.42 177.193 137.345 178.819C136.833 179.584 135.891 180.109 135.397 180.875C135.266 181.093 135.184 181.337 135.159 181.591C135.134 181.844 135.165 182.1 135.25 182.34C135.336 182.58 135.474 182.798 135.654 182.978C135.834 183.158 136.052 183.296 136.291 183.382C137.081 183.64 137.941 183.58 138.687 183.214C141.779 181.967 143.679 179.615 145.421 177.31C148.62 173.075 151.631 168.74 154.452 164.305L140.944 160.061Z" fill="black"/>
</g>
<path d="M143.928 134.027C115.258 123.53 107.031 147.177 107.031 147.177L118.513 159.7C135.112 165.875 143.846 164.353 146.336 169.711C148.826 175.069 153.707 175.069 153.707 175.069L159.164 170.889C166.931 164.292 171.833 144.24 143.928 134.027Z" fill="#DDB4E4"/>
<path d="M159.552 170.524L145.245 161.536C142.488 164.318 140.815 172.209 141.632 177.83C141.736 178.557 141.426 180.294 141.546 181.021C141.69 182.264 141.34 183.513 140.57 184.5C139.551 185.609 138.36 186.134 138.136 187.57C137.93 188.908 138.274 190.619 140.286 191.346C140.617 191.461 140.961 191.535 141.31 191.565C142.515 191.637 143.713 191.345 144.75 190.727C148.126 188.933 150.224 185.566 150.224 185.566C151.515 183.812 151.794 180.406 152.873 177.482C153.953 174.557 156.593 173.366 159.552 170.524Z" fill="#DDB4E4"/>
<path d="M140.17 132.81C138.587 132.212 135.44 131.601 133.04 131.95C136.179 133.743 138.377 136.456 138.828 137.347C144.045 147.667 140.957 154.866 135.341 164.585C136.991 165.213 138.718 165.621 140.475 165.798C145.231 156.122 149.472 139.647 140.17 132.81Z" fill="#263238"/>
<g opacity="0.3">
<path d="M147.059 158.272C145.69 159.099 144.555 160.262 143.762 161.65C142.969 163.039 142.544 164.607 142.526 166.206C143.302 164.165 144.504 162.313 146.053 160.775C148.581 158.061 153.363 157.764 157.539 157.111C153.871 156.143 149.936 156.578 147.059 158.272Z" fill="black"/>
</g>
<path d="M150.409 158.418C150.323 158.468 150.23 158.507 150.134 158.534C149.958 158.607 149.683 158.693 149.343 158.831C148.387 159.225 147.487 159.741 146.664 160.366C145.456 161.303 144.448 162.473 143.701 163.807C143.254 164.592 142.889 165.422 142.613 166.284C142.304 167.204 142.082 168.151 141.951 169.113C141.722 170.98 141.633 172.862 141.684 174.742C141.684 176.484 141.744 178.049 141.71 179.369C141.696 180.41 141.627 181.449 141.503 182.483C141.465 182.848 141.405 183.128 141.374 183.321C141.363 183.42 141.342 183.516 141.31 183.61C141.3 183.511 141.3 183.412 141.31 183.313C141.31 183.119 141.374 182.84 141.396 182.474C141.473 181.743 141.525 180.681 141.534 179.365C141.542 178.049 141.491 176.488 141.46 174.747C141.396 172.854 141.481 170.958 141.714 169.079C141.845 168.105 142.07 167.146 142.385 166.215C142.669 165.342 143.044 164.502 143.503 163.708C144.781 161.414 146.835 159.652 149.296 158.736C149.644 158.612 149.919 158.539 150.104 158.478C150.204 158.45 150.306 158.43 150.409 158.418Z" fill="#263238"/>
<path d="M161.375 167.763C161.35 167.862 161.319 167.96 161.28 168.055L161.155 168.412C161.095 168.55 161.009 168.696 160.919 168.868C160.352 169.809 159.624 170.643 158.769 171.332C157.732 172.239 156.373 173.173 155.04 174.39C154.336 175.013 153.743 175.752 153.286 176.574C152.849 177.486 152.559 178.462 152.426 179.464C152.281 180.486 152.047 181.493 151.725 182.474C151.41 183.374 151.002 184.239 150.508 185.054C150.064 185.799 149.559 186.505 148.998 187.166C148.503 187.734 147.97 188.268 147.403 188.766C146.586 189.489 145.697 190.126 144.75 190.666C144.423 190.869 144.148 190.993 143.971 191.096C143.881 191.149 143.786 191.192 143.688 191.225C143.768 191.16 143.856 191.104 143.95 191.058C144.122 190.95 144.38 190.817 144.707 190.628C145.624 190.059 146.488 189.409 147.287 188.684C147.84 188.183 148.36 187.647 148.844 187.08C149.399 186.406 149.899 185.688 150.34 184.934C150.822 184.116 151.22 183.252 151.527 182.354C151.841 181.386 152.071 180.394 152.215 179.387C152.353 178.362 152.653 177.366 153.105 176.437C153.576 175.595 154.187 174.84 154.911 174.205C156.275 172.979 157.638 172.055 158.683 171.194C159.524 170.521 160.25 169.715 160.833 168.808C160.923 168.64 161.018 168.498 161.082 168.378L161.229 168.038C161.266 167.941 161.315 167.848 161.375 167.763Z" fill="#263238"/>
<path d="M134.648 151.391L124.164 162.013C124.984 166.6 125.807 171.187 126.632 175.774C126.817 176.798 127.11 177.959 128.211 178.449C129.557 179.043 131.281 178.247 132.236 177.232C133.934 175.422 134.274 173.039 134.433 170.782C134.911 163.944 136.351 158.044 134.648 151.391Z" fill="#DDB4E4"/>
<path d="M115.645 148.871L107.607 157.068C108.437 161.919 109.13 170.773 109.96 175.624C110.145 176.708 110.441 177.933 111.521 178.458C112.837 179.094 114.531 178.264 115.451 177.193C117.103 175.293 117.421 172.777 117.563 170.399C117.995 163.168 117.349 155.912 115.645 148.871Z" fill="#DDB4E4"/>
<g opacity="0.3">
<path d="M117.503 160.629L107.058 160.947C108.756 163.196 111.526 164.46 114.321 164.817C117.116 165.174 119.954 164.766 122.707 164.159C124.938 163.665 127.497 162.439 129.548 161.437C131.6 160.435 137.242 155.257 137.594 151.976C131.935 152.952 123.162 159.678 117.503 160.629Z" fill="black"/>
</g>
<path d="M112.195 131.18C112.195 131.18 101.518 132.767 99.1611 142.434L98.5548 148.695C98.5548 148.695 98.0173 154.918 101.617 159.231C104.73 162.959 107.887 164.391 117.364 163.656C123.815 163.162 129.835 160.831 133.564 156.849C135.082 155.223 136.879 153.228 137.963 151.495C141.309 146.132 137.666 139.14 135.908 136.99C133.525 134.027 125.647 128.32 112.195 131.18Z" fill="#DDB4E4"/>
<path d="M109.848 132.732C109.848 132.732 103.978 130.492 102.808 130.01C99.6305 128.72 95.6828 127.589 94.8227 130.35C94.1519 132.5 100.288 143.487 100.288 143.487L106.434 136.577L109.848 132.732Z" fill="#DDB4E4"/>
<g opacity="0.3">
<path d="M108.351 133.885C108.351 133.885 96.74 128.918 96.0305 129.903C95.3209 130.887 100.597 139.978 100.597 139.978C100.597 139.978 107.616 137.592 108.351 133.885Z" fill="black"/>
</g>
<path d="M99.6133 140.434C99.9616 138.607 101.222 136.624 102.378 135.201C102.229 135.933 102.313 136.694 102.619 137.377C104.692 135.158 106.898 132.857 109.788 131.967L109.358 134.117L104.928 140.95L99.6133 140.434Z" fill="#DDB4E4"/>
<path opacity="0.3" d="M118.557 145.087C117.785 144.716 116.916 144.593 116.071 144.735L113.224 145.165C112.682 145.244 112.16 145.429 111.689 145.711C111.16 146.029 110.705 146.456 110.352 146.962C109.618 148.102 109.224 149.427 109.216 150.783C109.208 152.139 109.587 153.469 110.309 154.617C111.021 155.752 112.07 156.635 113.309 157.143C114.549 157.652 115.916 157.759 117.22 157.451C118.524 157.143 119.698 156.434 120.579 155.424C121.46 154.415 122.002 153.155 122.13 151.822C122.265 150.472 121.997 149.112 121.362 147.914C120.726 146.716 119.75 145.732 118.557 145.087Z" fill="white"/>
<path d="M116.754 145.909C116.098 145.725 115.412 145.676 114.737 145.764C114.061 145.852 113.411 146.075 112.824 146.42C112.432 146.579 112.14 147.246 112.471 147.525L114.449 149.194C114.538 149.274 114.653 149.318 114.772 149.318C114.891 149.318 115.006 149.274 115.094 149.194L117.511 146.872C117.842 146.519 117.33 145.99 116.754 145.909Z" fill="#263238"/>
<path d="M114.737 148.274C114.712 148.397 114.705 148.523 114.716 148.648C114.73 148.989 114.787 149.327 114.883 149.654C115.028 150.144 115.265 150.602 115.58 151.004C115.964 151.495 116.474 151.872 117.055 152.097C117.629 152.325 118.26 152.372 118.861 152.23C119.347 152.107 119.792 151.857 120.151 151.508C120.396 151.272 120.592 150.989 120.727 150.678C120.783 150.564 120.819 150.442 120.835 150.316C120.653 150.728 120.393 151.1 120.07 151.413C119.717 151.735 119.287 151.961 118.822 152.071C118.248 152.202 117.648 152.154 117.102 151.933C116.55 151.717 116.062 151.361 115.687 150.901C115.38 150.516 115.142 150.079 114.987 149.611C114.862 149.174 114.778 148.726 114.737 148.274Z" fill="#263238"/>
<path d="M109.874 151.189C109.93 151.291 109.999 151.385 110.08 151.469C110.281 151.712 110.501 151.938 110.738 152.144C111.087 152.464 111.517 152.68 111.981 152.768C112.266 152.807 112.557 152.789 112.835 152.715C113.113 152.642 113.374 152.513 113.602 152.338C114.064 151.987 114.412 151.508 114.604 150.961C114.764 150.516 114.852 150.049 114.867 149.577C114.878 149.26 114.867 148.942 114.832 148.626C114.828 148.511 114.806 148.396 114.768 148.287C114.733 148.287 114.802 148.781 114.746 149.577C114.714 150.033 114.616 150.482 114.454 150.91C114.26 151.423 113.925 151.87 113.486 152.2C113.062 152.535 112.523 152.689 111.985 152.63C111.545 152.554 111.134 152.361 110.794 152.071C110.197 151.551 109.874 151.164 109.874 151.189Z" fill="#263238"/>
<path d="M113.4 154.139C113.4 154.139 113.551 154.38 113.921 154.621C114.408 154.926 114.976 155.075 115.551 155.051C116.122 155.027 116.673 154.829 117.129 154.483C117.473 154.217 117.619 153.98 117.602 153.963C117.585 153.946 117.395 154.135 117.043 154.359C116.592 154.65 116.071 154.815 115.534 154.836C114.998 154.856 114.465 154.731 113.994 154.475C113.624 154.294 113.426 154.114 113.4 154.139Z" fill="#263238"/>
<path d="M119.954 148.343C119.954 148.403 127.217 148.244 136.166 147.986C145.115 147.728 152.374 147.474 152.37 147.414C152.366 147.353 145.111 147.517 136.158 147.771C127.204 148.024 119.954 148.282 119.954 148.343Z" fill="#263238"/>
<path d="M119.979 149.422C120.068 149.446 120.159 149.461 120.25 149.465L121.029 149.555C121.708 149.628 122.689 149.719 123.906 149.818C126.335 150.02 129.698 150.248 133.414 150.359C137.129 150.471 140.492 150.493 142.93 150.458C144.147 150.437 145.132 150.415 145.812 150.385L146.594 150.351C146.685 150.354 146.776 150.345 146.865 150.325C146.775 150.315 146.684 150.315 146.594 150.325H142.926C140.492 150.325 137.129 150.291 133.418 150.166C129.707 150.041 126.344 149.848 123.914 149.689L121.037 149.495L120.255 149.443C120.164 149.425 120.072 149.418 119.979 149.422Z" fill="#263238"/>
<path d="M88.127 154.157C88.127 154.217 93.3433 153.21 99.7379 151.916C106.132 150.622 111.349 149.517 111.319 149.461C111.289 149.405 106.107 150.407 99.7078 151.705C93.3089 153.004 88.1141 154.101 88.127 154.157Z" fill="#263238"/>
<path d="M93.0206 156.943C93.0421 156.999 96.9726 155.55 101.798 153.709C106.623 151.869 110.523 150.329 110.501 150.269C110.48 150.209 106.554 151.662 101.724 153.503C96.8952 155.343 93.0034 156.887 93.0206 156.943Z" fill="#263238"/>
<path d="M107.849 132.268C110.274 131.021 112.368 130.088 115.09 129.881C116.094 127.535 117.933 125.646 120.251 124.579L117.868 129.236C118.936 128.121 120.267 127.291 121.739 126.824C120.879 127.678 120.298 128.772 120.07 129.963C121.357 130.002 122.64 130.113 123.915 130.294C123.915 130.294 132.193 120.592 136.351 121.861C139.4 122.79 137.34 139.695 137.34 139.695" fill="#DDB4E4"/>
<path d="M137.344 139.695C137.339 139.637 137.339 139.58 137.344 139.523C137.344 139.398 137.37 139.23 137.387 139.019C137.43 138.568 137.486 137.919 137.559 137.093C137.697 135.42 137.89 132.995 137.929 129.989C137.966 128.356 137.89 126.722 137.701 125.099C137.644 124.656 137.562 124.217 137.456 123.783C137.357 123.34 137.19 122.915 136.962 122.523C136.852 122.33 136.697 122.166 136.51 122.046C136.307 121.945 136.087 121.885 135.861 121.87C135.384 121.827 134.904 121.876 134.446 122.012C133.482 122.304 132.568 122.739 131.732 123.302C130.848 123.881 130.001 124.515 129.195 125.198C127.507 126.654 125.918 128.222 124.439 129.89L124.009 130.384L123.966 130.427H123.906C122.638 130.241 121.36 130.132 120.078 130.101H119.945L119.971 129.972C120.08 129.361 120.289 128.772 120.59 128.23C120.896 127.71 121.256 127.224 121.665 126.781L121.781 126.957C120.329 127.419 119.015 128.236 117.958 129.335L117.468 129.851L117.791 129.219C118.651 127.581 119.429 126.024 120.177 124.566L120.302 124.695C117.993 125.744 116.154 127.612 115.142 129.937V129.976H115.099C113.222 130.139 111.388 130.634 109.684 131.438C109.087 131.709 108.631 131.932 108.321 132.079L107.973 132.242C107.935 132.265 107.895 132.282 107.853 132.294C107.887 132.267 107.925 132.244 107.964 132.225L108.304 132.04C108.609 131.885 109.057 131.649 109.654 131.369C111.357 130.529 113.199 130.009 115.09 129.834L115.03 129.877C116.035 127.509 117.885 125.599 120.22 124.519L120.47 124.407L120.345 124.648L117.976 129.309L117.808 129.189C118.886 128.06 120.23 127.22 121.717 126.746L122.091 126.626L121.829 126.923C121.429 127.353 121.077 127.826 120.779 128.333C120.493 128.856 120.294 129.423 120.19 130.01L120.078 129.877C121.374 129.906 122.667 130.017 123.949 130.208L123.85 130.247L124.28 129.748C125.771 128.08 127.373 126.516 129.075 125.065C129.886 124.374 130.74 123.736 131.633 123.156C132.488 122.582 133.423 122.139 134.407 121.84C134.892 121.697 135.4 121.647 135.904 121.693C136.027 121.708 136.149 121.731 136.269 121.762C136.398 121.783 136.521 121.83 136.63 121.9C136.842 122.038 137.019 122.223 137.146 122.442C137.38 122.855 137.552 123.299 137.658 123.762C137.764 124.203 137.845 124.649 137.903 125.099C138.086 126.732 138.153 128.376 138.105 130.019C138.045 133.029 137.826 135.454 137.675 137.127C137.594 137.962 137.521 138.611 137.465 139.05C137.435 139.26 137.413 139.428 137.396 139.548C137.382 139.598 137.365 139.647 137.344 139.695Z" fill="#263238"/>
<g opacity="0.3">
<path d="M134.532 137.2C134.532 137.2 135.508 124.772 134.076 124.467C132.644 124.162 124.314 132.315 124.314 132.315C124.314 132.315 129.952 137.871 134.532 137.2Z" fill="black"/>
</g>
<path d="M124.229 131.821C126.026 131.515 128.297 132.031 130.017 132.646C129.291 132.759 128.622 133.103 128.107 133.627C130.89 134.844 133.788 136.151 135.642 138.607L133.491 138.929L125.639 137.063L124.229 131.821Z" fill="#DDB4E4"/>
<path d="M110.497 147.427C110.343 147.474 110.093 146.945 109.706 146.192C109.494 145.774 109.22 145.39 108.893 145.053C108.545 144.686 108.076 144.456 107.573 144.403C107.062 144.403 106.566 144.572 106.163 144.885C105.793 145.169 105.47 145.51 105.208 145.896C104.722 146.588 104.434 147.087 104.279 147.027C104.124 146.966 104.159 146.403 104.511 145.513C104.735 144.97 105.076 144.482 105.509 144.085C106.088 143.553 106.851 143.266 107.638 143.285C108.028 143.317 108.409 143.428 108.755 143.613C109.101 143.797 109.406 144.05 109.65 144.356C110.025 144.806 110.295 145.333 110.441 145.9C110.678 146.825 110.639 147.388 110.497 147.427Z" fill="#263238"/>
<path d="M126.335 144.649C126.21 144.752 125.776 144.365 125.118 143.823C124.761 143.52 124.359 143.273 123.927 143.092C123.463 142.893 122.944 142.864 122.46 143.01C121.989 143.208 121.597 143.557 121.347 144.004C121.122 144.407 120.959 144.842 120.865 145.294C120.689 146.124 120.62 146.696 120.457 146.7C120.293 146.704 120.095 146.175 120.078 145.216C120.065 144.623 120.187 144.035 120.435 143.496C120.759 142.78 121.348 142.217 122.078 141.926C122.451 141.803 122.844 141.757 123.236 141.791C123.627 141.825 124.007 141.938 124.353 142.124C124.873 142.394 125.328 142.774 125.686 143.238C126.262 144.025 126.447 144.558 126.335 144.649Z" fill="#263238"/>
<g opacity="0.3">
<path d="M116.901 140.481C117.03 141.084 116.088 141.802 114.751 141.935C113.413 142.068 112.36 141.561 112.368 140.946C112.377 140.331 113.34 139.832 114.518 139.707C115.697 139.583 116.755 139.875 116.901 140.481Z" fill="white"/>
</g>
<path d="M140.996 146.532C140.958 146.64 140.909 146.744 140.85 146.842C140.742 147.044 140.583 147.332 140.377 147.702C139.947 148.446 139.34 149.517 138.506 150.798C137.538 152.302 136.469 153.739 135.306 155.098C133.882 156.772 132.264 158.271 130.486 159.562C128.703 160.859 126.722 161.858 124.62 162.521C122.904 163.043 121.144 163.405 119.361 163.6C117.843 163.781 116.609 163.854 115.757 163.905L114.777 163.953C114.662 163.964 114.547 163.964 114.433 163.953C114.544 163.928 114.658 163.912 114.772 163.905L115.749 163.819C116.609 163.742 117.83 163.643 119.339 163.441C121.108 163.225 122.853 162.853 124.556 162.327C126.633 161.656 128.591 160.661 130.357 159.377C132.121 158.096 133.73 156.614 135.152 154.961C136.315 153.61 137.393 152.186 138.377 150.699C139.237 149.431 139.86 148.377 140.299 147.646C140.514 147.293 140.682 147.014 140.807 146.786C140.931 146.558 140.991 146.532 140.996 146.532Z" fill="#263238"/>
<g opacity="0.3">
<path d="M114.523 173.155C114.254 173.095 113.971 173.138 113.732 173.276C113.299 173.526 112.925 173.867 112.635 174.274C112.345 174.681 112.146 175.146 112.051 175.637C111.977 175.894 111.984 176.168 112.069 176.422C112.154 176.676 112.314 176.899 112.528 177.06C112.801 177.198 113.108 177.255 113.412 177.225C113.717 177.196 114.007 177.08 114.248 176.892C114.693 176.527 115.022 176.04 115.194 175.491C115.383 175.073 115.457 174.613 115.409 174.157C115.373 173.923 115.271 173.704 115.114 173.526C114.957 173.348 114.752 173.22 114.523 173.155Z" fill="black"/>
</g>
<path d="M112.127 172.73C112.637 172.162 113.307 171.762 114.049 171.582C114.765 171.326 115.54 171.281 116.281 171.453C115.556 171.505 114.836 171.62 114.131 171.797C113.431 172.035 112.76 172.348 112.127 172.73Z" fill="#263238"/>
<path d="M135.496 156.926C135.528 157.067 135.54 157.212 135.53 157.356C135.53 157.623 135.53 158.014 135.53 158.491C135.53 159.45 135.453 160.779 135.341 162.237C135.229 163.695 135.074 165.019 134.941 165.97C134.876 166.443 134.816 166.83 134.769 167.092C134.754 167.232 134.721 167.369 134.67 167.501C134.674 166.983 134.712 166.466 134.782 165.952C134.876 164.998 135.001 163.678 135.117 162.22C135.233 160.762 135.311 159.442 135.371 158.487C135.38 157.965 135.422 157.443 135.496 156.926Z" fill="#263238"/>
<path d="M56.0849 127.353C56.0665 127.306 56.0535 127.256 56.0462 127.206C56.0247 127.099 55.9989 126.957 55.9645 126.776C55.8914 126.385 55.7882 125.83 55.6592 125.121C55.384 123.676 54.9884 121.603 54.5067 119.053C53.5133 113.931 52.0727 106.87 50.4859 99.065C48.8991 91.2599 47.4757 84.1945 46.5339 79.0599C46.0566 76.4797 45.6738 74.4155 45.4502 72.9792C45.3384 72.2697 45.2481 71.7106 45.1879 71.3193C45.1621 71.1387 45.1406 70.9925 45.1234 70.8893C45.1177 70.8407 45.1177 70.7916 45.1234 70.743C45.1418 70.7884 45.1534 70.8362 45.1578 70.8849C45.1578 70.9925 45.2094 71.1344 45.2438 71.315C45.3169 71.7063 45.4201 72.2611 45.5491 72.9663C45.8243 74.4155 46.2157 76.484 46.7016 79.0384C47.695 84.1601 49.1356 91.2212 50.7181 99.0263C52.3006 106.831 53.7284 113.897 54.6744 119.027C55.1518 121.607 55.5345 123.672 55.7581 125.112C55.8699 125.822 55.9559 126.376 56.0204 126.772L56.0849 127.202C56.0907 127.252 56.0907 127.303 56.0849 127.353Z" fill="#263238"/>
<path d="M44.3963 73.7274C34.3078 69.8571 25.1222 60.663 18.6158 52.0279C12.1094 43.3928 8.83687 32.0056 11.3053 21.4955C13.7737 10.9855 22.5334 1.80001 33.237 0.23899C44.6974 -1.42954 56.2911 5.82943 61.7482 16.0556C67.2053 26.2818 65.4078 40.804 60.2474 51.1679C54.3989 62.8605 52.8723 66.6749 44.3963 73.7274Z" fill="#455A64"/>
<path d="M48.7394 75.2154C47.1999 74.0285 45.8237 72.5492 45.1099 70.743L44.2498 71.9428C43.2177 73.1856 42.6243 76.3378 42.5297 77.9633C42.4953 78.4277 42.5727 79.004 43.0027 79.1803C43.4328 79.3566 43.9488 78.9395 44.1638 78.4922C44.3788 78.045 44.4992 77.5204 44.8863 77.2021C44.9036 77.7206 45.0358 78.2288 45.2733 78.6901C45.375 78.9408 45.5681 79.1435 45.8136 79.2572C46.0592 79.3708 46.3387 79.3869 46.5957 79.3022C46.8526 79.2174 47.0677 79.0382 47.1975 78.8008C47.3272 78.5634 47.3619 78.2855 47.2945 78.0235C47.1983 77.4948 46.9804 76.9956 46.658 76.5657C47.0787 77.0644 47.6273 77.439 48.2448 77.6494C48.877 77.7999 49.6682 77.4774 49.7801 76.8409C49.8919 76.2045 49.2812 75.6282 48.7394 75.2154Z" fill="#455A64"/>
<path d="M46.2885 72.0889C46.4347 72.1664 46.0133 72.9748 44.9984 73.3102C43.9835 73.6457 43.1794 73.2629 43.2439 73.1167C43.3084 72.9705 44.0093 73.0221 44.8049 72.7426C45.6004 72.4631 46.1509 71.9857 46.2885 72.0889Z" fill="#263238"/>
<g opacity="0.2">
<path d="M61.7095 31.9583C61.3753 31.8083 61.0038 31.7617 60.6428 31.8246C60.2819 31.8874 59.948 32.0568 59.6841 32.3109C58.6477 33.2656 58.566 34.646 58.4413 35.9404C57.3832 46.4672 52.2688 56.1686 44.1814 62.9895C43.016 63.9657 41.6528 65.2515 42.0312 66.7222C42.315 67.8102 43.532 68.4423 44.6587 68.4423C45.6487 68.4102 46.6152 68.1324 47.4711 67.6339C48.3544 67.1321 49.1304 66.4614 49.7546 65.66C57.2157 56.2423 60.7463 47.2116 62.6126 35.1965C62.8104 33.9924 62.8276 32.5044 61.7095 31.9583Z" fill="black"/>
</g>
<g opacity="0.2">
<path d="M60.2267 21.3365C59.9484 21.2026 59.6414 21.1393 59.3328 21.152C59.0242 21.1647 58.7234 21.2532 58.4571 21.4095C58.1907 21.5659 57.9668 21.7853 57.8052 22.0485C57.6437 22.3118 57.5493 22.6107 57.5304 22.919V22.8459C57.4641 24.0017 57.6765 25.1565 58.1497 26.213C58.67 27.1892 59.8956 27.8816 60.9019 27.4257C61.9082 26.9699 62.192 25.5938 62.0802 24.4628C61.934 23.2028 61.3792 21.8611 60.2267 21.3365Z" fill="black"/>
</g>
<path d="M22.7195 6.43579C22.6578 6.51409 22.587 6.58482 22.5087 6.64651L21.868 7.19695L21.4036 7.58828C21.2401 7.73449 21.0724 7.91081 20.8832 8.08712C20.5134 8.45265 20.0705 8.83968 19.6447 9.33852L18.9567 10.0954C18.7201 10.362 18.5008 10.6587 18.26 10.9554C17.7655 11.5403 17.3182 12.2455 16.828 12.9336C15.8158 14.5041 14.952 16.1655 14.2478 17.8962C13.5734 19.6412 13.0623 21.445 12.7212 23.2845C12.5965 24.1446 12.4503 24.9444 12.4073 25.7099C12.3815 26.0883 12.3341 26.4582 12.3255 26.8151C12.3169 27.172 12.3255 27.5117 12.3255 27.8386C12.2911 28.4879 12.3513 29.0771 12.3686 29.5974C12.3686 29.8554 12.3686 30.0962 12.4073 30.3199C12.446 30.5435 12.4546 30.7499 12.4761 30.9219C12.5105 31.2573 12.5363 31.5325 12.5621 31.782C12.5724 31.8806 12.5724 31.9801 12.5621 32.0787C12.5273 31.9859 12.5042 31.8891 12.4933 31.7906C12.4546 31.5669 12.4073 31.2917 12.3514 30.9563C12.3212 30.7714 12.2911 30.5693 12.2567 30.3543C12.2223 30.1392 12.218 29.8898 12.1922 29.6275C12.1578 29.1072 12.089 28.518 12.1062 27.8601V26.828C12.1062 26.4668 12.1492 26.0969 12.1707 25.7099C12.2051 24.9358 12.3384 24.1188 12.4632 23.2587C12.7881 21.3917 13.295 19.5611 13.9769 17.793C14.6875 16.0436 15.566 14.3672 16.6001 12.7874C17.0989 12.0778 17.5634 11.3898 18.0708 10.8049C18.3159 10.5082 18.5395 10.2072 18.7847 9.94487L19.4942 9.19231C19.9017 8.76072 20.3324 8.35158 20.7843 7.96671C20.9778 7.7904 21.1541 7.62268 21.3261 7.48077L21.8078 7.10664L22.4829 6.5949C22.5537 6.53077 22.6334 6.47718 22.7195 6.43579Z" fill="white"/>
<path d="M31.3155 3.02991C31.3413 3.10732 30.2791 3.52875 28.946 3.97168C27.6129 4.41462 26.5077 4.71134 26.4819 4.63394C26.4561 4.55653 27.5183 4.1351 28.8514 3.69216C30.1845 3.24923 31.2897 2.96111 31.3155 3.02991Z" fill="white"/>
<g opacity="0.1">
<path d="M24.9377 7.64846C14.7459 15.1353 12.342 26.8409 16.6466 38.7227C18.0228 42.5156 20.3019 46.1623 24.1765 47.805C25.1976 48.2431 26.2951 48.4755 27.4061 48.4887C33.0438 48.5231 35.4864 43.509 35.6799 38.9033C35.8261 35.4931 34.9919 32.1217 34.7124 28.7244C34.4328 25.3271 34.8113 21.6288 36.9958 19.0099C39.1804 16.391 43.0163 14.9805 42.9862 11.1059C42.9536 10.1826 42.7071 9.27935 42.2661 8.46745C41.825 7.65556 41.2016 6.95713 40.4447 6.42716C39.288 5.57208 37.9558 4.98456 36.5443 4.70703C32.9471 4.03085 29.2281 4.787 26.1805 6.81419L24.9377 7.64846Z" fill="white"/>
</g>
<path d="M58.8024 61.0845C58.8669 61.0845 58.2821 75.5078 57.5123 93.294C56.7426 111.08 56.0459 125.495 55.9814 125.491C55.9169 125.486 56.506 111.072 57.2715 93.2811C58.037 75.4906 58.7422 61.0845 58.8024 61.0845Z" fill="#263238"/>
<path d="M57.4522 81.5325C49.5826 76.1958 43.5449 66.5157 39.6832 57.8291C35.8215 49.1424 35.2926 38.7442 39.4983 30.2209C43.704 21.6976 53.0229 15.5998 62.4965 16.3738C72.641 17.2339 81.1255 25.7486 83.766 35.5791C86.4064 45.4097 81.9856 57.5108 75.505 65.3503C68.1944 74.2176 66.1088 77.1763 57.4436 81.5325" fill="#DDB4E4"/>
<path d="M60.8761 83.6655C59.7393 82.377 58.9725 80.8048 58.6571 79.1157L57.6681 79.9758C56.5371 80.8359 55.4061 83.4161 54.9889 84.775C54.8685 85.1663 54.8212 85.6694 55.1524 85.906C55.4835 86.1425 56.0124 85.906 56.2833 85.549C56.5543 85.1921 56.765 84.7836 57.1434 84.5944C57.0557 85.043 57.0675 85.5054 57.1778 85.949C57.2222 86.1783 57.3503 86.3829 57.5371 86.5232C57.724 86.6634 57.9562 86.7292 58.1888 86.7077C58.4215 86.6863 58.6378 86.5792 58.7959 86.4072C58.9539 86.2351 59.0424 86.0105 59.0442 85.7769C59.073 85.3137 58.9996 84.8498 58.8291 84.418C59.0902 84.9284 59.4839 85.3592 59.9687 85.6651C60.4805 85.9189 61.2244 85.7984 61.4437 85.2738C61.6631 84.7492 61.2545 84.1299 60.8761 83.6655Z" fill="#DDB4E4"/>
<path d="M59.3967 80.5047C59.5085 80.5993 58.9666 81.21 58.0636 81.3003C57.1605 81.3906 56.5154 80.896 56.6014 80.7842C56.6874 80.6724 57.2766 80.8573 58.0119 80.7842C58.7473 80.7111 59.302 80.3886 59.3967 80.5047Z" fill="#263238"/>
<g opacity="0.2">
<path d="M80.5758 49.2069C80.3198 49.0121 80.0113 48.8986 79.6901 48.881C79.3689 48.8633 79.0498 48.9424 78.774 49.108C77.6989 49.7187 77.3506 50.8798 76.9894 51.9677C73.9927 60.7728 67.6839 68.0643 59.401 72.2954C58.2098 72.8975 56.7907 73.7274 56.8208 75.0648C56.8466 76.0539 57.7626 76.8366 58.7301 77.0516C59.5875 77.2282 60.4758 77.1823 61.3103 76.9183C62.1675 76.6676 62.9658 76.248 63.6583 75.6841C71.9193 69.1003 76.7356 62.0735 80.722 52.1527C81.1091 51.1937 81.423 49.9036 80.5758 49.2069Z" fill="black"/>
</g>
<g opacity="0.2">
<path d="M81.418 39.8149C81.2054 39.6462 80.9547 39.532 80.6878 39.4823C80.4209 39.4326 80.1459 39.449 79.8868 39.53C79.6277 39.611 79.3923 39.7542 79.2012 39.947C79.0102 40.1398 78.8691 40.3765 78.7905 40.6363V40.5718C78.5009 41.549 78.4522 42.5819 78.6486 43.582C78.9023 44.5195 79.814 45.3581 80.7643 45.1689C81.7147 44.9796 82.2437 43.8788 82.3641 42.8639C82.506 41.7544 82.2953 40.4944 81.418 39.8149Z" fill="black"/>
</g>
<path d="M52.2496 19.6034C52.1819 19.6595 52.1066 19.7059 52.026 19.741L51.3724 20.085L50.895 20.3302C50.723 20.4248 50.5467 20.5366 50.3489 20.6527C49.9619 20.8935 49.4888 21.1386 49.0588 21.4783L48.3191 21.9901C48.0611 22.1707 47.816 22.3857 47.5494 22.5921C47.0118 22.9964 46.4915 23.4909 45.9281 24.0026C43.5399 26.2774 41.638 29.0131 40.3377 32.0443C40.0582 32.7495 39.7744 33.4118 39.5894 34.0568C39.4905 34.3793 39.3744 34.6847 39.297 34.99C39.2196 35.2953 39.1465 35.5834 39.0777 35.8501C38.9186 36.4005 38.8541 36.9165 38.7638 37.3638C38.7251 37.5874 38.6821 37.7938 38.6563 37.9873C38.6305 38.1808 38.6133 38.3572 38.5918 38.5206C38.5574 38.813 38.5273 39.0581 38.5015 39.2516C38.4952 39.3395 38.4779 39.4262 38.4499 39.5096C38.4386 39.424 38.4386 39.3373 38.4499 39.2516C38.4499 39.0495 38.4757 38.8216 38.4929 38.5077C38.4929 38.3443 38.5187 38.1636 38.5316 37.9744C38.5445 37.7852 38.5875 37.5444 38.6219 37.3423C38.687 36.8261 38.7789 36.3137 38.8971 35.8071C38.9616 35.5232 39.0304 35.2308 39.1035 34.9212C39.1766 34.6116 39.2841 34.3062 39.383 33.9794C39.5636 33.3215 39.8432 32.6506 40.1184 31.9368C41.4036 28.8654 43.325 26.1012 45.7561 23.8263C46.3281 23.3189 46.857 22.82 47.4075 22.4201C47.6784 22.218 47.9321 21.9901 48.1944 21.8267L48.947 21.3235C49.42 20.9924 49.8887 20.7559 50.2844 20.528C50.4865 20.4162 50.6714 20.3086 50.8477 20.2183L51.3337 19.9947L52.0131 19.6937C52.0871 19.6521 52.1668 19.6217 52.2496 19.6034Z" fill="white"/>
<path d="M60.2954 18.4037C60.2954 18.4768 59.3107 18.6273 58.0765 18.7391C56.8423 18.8509 55.8446 18.8896 55.836 18.8165C55.8274 18.7434 56.8208 18.5929 58.055 18.4811C59.2892 18.3693 60.2868 18.3306 60.2954 18.4037Z" fill="white"/>
<g opacity="0.1">
<path d="M53.9176 21.0913C43.7 25.4776 39.318 35.0244 40.6425 46.0633C41.0725 49.5853 42.2938 53.1589 45.2825 55.3391C46.0714 55.9156 46.9655 56.3319 47.9143 56.5647C52.735 57.7172 55.8227 53.9028 56.9063 49.9981C57.7062 47.1083 57.6632 44.0594 58.0975 41.0921C58.5319 38.1249 59.5898 35.0373 61.9678 33.2268C64.3459 31.4164 67.9066 30.9734 68.6678 27.6364C68.8222 26.8392 68.79 26.0171 68.5737 25.2345C68.3573 24.4519 67.9627 23.73 67.4207 23.1253C66.5935 22.1692 65.5657 21.4071 64.4104 20.8935C61.4656 19.6003 58.1317 19.5107 55.1217 20.644L53.9176 21.0913Z" fill="white"/>
</g>
<path d="M75.1225 149.71L66.7282 147.422C66.6078 149.095 64.6554 151.641 64.535 153.309C64.4533 154.488 65.7606 157.274 65.7606 157.274C64.9651 157.523 64.2146 157.898 63.5374 158.384C61.8172 159.794 61.8172 162.684 63.2922 164.357C64.7672 166.03 66.7325 166.137 68.8827 165.26C70.7103 164.507 72.2799 164.103 73.2604 162.387C73.8066 161.428 73.3894 157.433 72.9164 154.84C72.4605 152.467 75.0666 150.531 75.1225 149.71Z" fill="#C17560"/>
<g opacity="0.3">
<path d="M75.1225 149.71L66.7282 147.422C66.6078 149.095 64.6554 151.641 64.535 153.309C64.4533 154.488 65.7606 157.274 65.7606 157.274C64.9651 157.523 64.2146 157.898 63.5374 158.384C61.8172 159.794 61.8172 162.684 63.2922 164.357C64.7672 166.03 66.7325 166.137 68.8827 165.26C70.7103 164.507 72.2799 164.103 73.2604 162.387C73.8066 161.428 73.3894 157.433 72.9164 154.84C72.4605 152.467 75.0666 150.531 75.1225 149.71Z" fill="black"/>
</g>
<path d="M79.2852 121.435C79.4203 123.353 79.0588 125.273 78.2354 127.01C77.4121 128.747 76.1548 130.242 74.585 131.352L78.2402 136.168C80.3034 134.335 81.5676 131.768 81.7629 129.015C81.9582 126.262 81.0689 123.541 79.2852 121.435Z" fill="#AE7461"/>
<path d="M79.1868 138.783C78.9287 135.166 76.8388 131.64 73.5963 130.023C71.4461 128.957 68.9778 128.733 66.6083 129.025C64.2465 129.381 61.9306 129.994 59.7019 130.853L39.1592 137.974C38.0755 142.081 37.9594 146.751 40.3246 150.278C41.9286 152.682 44.5088 154.26 47.2611 155.103C50.0133 155.946 52.916 156.092 55.7886 156.04C59.4138 155.971 63.0605 155.61 66.5137 154.479C69.9668 153.348 73.2222 151.49 75.6089 148.76C77.9956 146.029 79.4448 142.399 79.1868 138.783Z" fill="#AE7461"/>
<path d="M40.9908 146.803C39.0255 146.566 35.3616 148.054 33.8049 149.276C32.2482 150.497 30.9581 151.796 30.4764 153.709C29.9174 155.954 30.3087 157.898 32.1966 159.098C34.0844 160.297 36.9269 159.897 38.0708 157.997C38.617 157.089 38.7632 155.958 39.4426 155.146C40.1995 154.238 41.438 153.933 42.5905 153.679L47.5015 152.6L40.9908 146.803Z" fill="#AE7461"/>
<path d="M57.573 150.85L48.8906 151.391C49.3207 153.013 50.0302 155.442 50.4559 157.064C50.757 158.203 51.1483 161.029 51.1483 161.029C50.4773 161.521 49.8894 162.118 49.4067 162.796C48.237 164.684 49.1787 167.415 51.101 168.528C53.0232 169.642 54.9326 169.105 56.6914 167.582C58.175 166.292 59.5297 165.389 59.9038 163.45C60.2779 161.51 58.046 152.63 57.573 150.85Z" fill="#AE7461"/>
<path d="M81.491 155.601C81.6415 154.513 79.7709 150.953 78.3733 148.721C77.0832 146.678 78.8033 143.913 78.5324 143.13L69.8801 144.124C68.6115 146.794 68.3234 148.106 68.8308 149.714C69.1877 150.841 72.6323 153.645 72.6323 153.645C71.9866 154.171 71.4291 154.796 70.981 155.498C69.9102 157.446 70.981 160.121 72.9677 161.136C74.9545 162.151 76.838 161.514 78.4808 159.906C79.887 158.521 81.1943 157.558 81.491 155.601Z" fill="#AE7461"/>
<path d="M49.8752 155.692C49.6508 155.705 49.4257 155.692 49.2043 155.653C48.5958 155.582 47.9925 155.471 47.3982 155.322C45.4107 154.856 43.5834 153.869 42.1045 152.462C40.6631 151.017 39.5883 149.247 38.9695 147.302C38.7785 146.718 38.6347 146.12 38.5395 145.513C38.4936 145.292 38.4762 145.067 38.4879 144.842C38.5438 144.842 38.6384 145.792 39.1415 147.237C39.8023 149.122 40.8781 150.834 42.2894 152.247C43.742 153.621 45.5165 154.607 47.4498 155.116C48.9248 155.558 49.8795 155.653 49.8752 155.692Z" fill="#263238"/>
<path d="M51.0364 159.493C50.9633 159.515 50.3784 157.575 49.7463 155.163C49.1141 152.75 48.6325 150.777 48.7056 150.755C48.7787 150.734 49.3678 152.677 49.9957 155.09C50.6235 157.502 51.1095 159.476 51.0364 159.493Z" fill="#263238"/>
<path d="M67.6611 143.604C67.7041 143.604 67.5278 144.231 67.3859 145.238C67.1764 146.544 67.2736 147.88 67.6697 149.142C68.0978 150.392 68.9619 151.445 70.1037 152.11C70.5934 152.358 71.1099 152.55 71.6432 152.682C71.5009 152.706 71.3555 152.706 71.2132 152.682C70.8032 152.622 70.4053 152.497 70.0349 152.312C68.8074 151.667 67.8744 150.576 67.4289 149.263C67.0127 147.96 66.9387 146.573 67.2139 145.233C67.2869 144.832 67.386 144.435 67.5106 144.046C67.5348 143.891 67.5857 143.741 67.6611 143.604Z" fill="#263238"/>
<path d="M57.251 148.325C57.2123 148.355 56.9499 147.99 56.3909 147.551C55.6759 146.971 54.8085 146.61 53.8931 146.511C52.9777 146.412 52.0532 146.579 51.2305 146.992C50.594 147.302 50.2586 147.607 50.2285 147.573C50.4634 147.25 50.7754 146.991 51.1359 146.82C51.9796 146.336 52.955 146.131 53.9222 146.236C54.8894 146.34 55.7988 146.748 56.5199 147.401C56.8362 147.644 57.0873 147.962 57.251 148.325Z" fill="#263238"/>
<path d="M58.9541 131.111L61.8869 130.113C61.8869 130.113 65.3272 138.194 64.6649 145.668C64.0027 153.142 63.1426 155.335 63.1426 155.335L61.0613 155.67C61.0613 155.67 62.575 147.474 62.2611 142.52C61.8912 136.77 58.9541 131.111 58.9541 131.111Z" fill="#263238"/>
<path d="M53.3201 137.304C53.3846 135.734 52.2966 134.319 51.0151 133.412C49.5211 132.375 47.7658 131.779 45.9493 131.692C44.6753 131.553 43.3924 131.857 42.3155 132.552C41.8171 132.942 41.4063 133.433 41.1099 133.992C40.8136 134.551 40.6383 135.167 40.5954 135.798C40.4836 137.054 39.5676 138.065 40.1224 139.2C42.356 140.754 45.0367 141.535 47.7555 141.423C49.0332 141.412 50.2854 141.064 51.3849 140.413C51.9292 140.083 52.3881 139.63 52.7244 139.09C53.0606 138.549 53.2647 137.937 53.3201 137.304Z" fill="#6F4439"/>
<path d="M61.8735 132.384L62.1659 129.481C62.1659 129.481 62.3809 128.122 60.8758 120.205C58.9019 109.756 45.6354 110.237 45.6354 110.237C44.3926 110.138 32.6398 109.88 30.6487 120.924C29.5823 126.845 30.2187 129.051 30.2187 129.051L30.9154 132.922C30.9154 132.922 31.6593 140.503 37.6755 141.578C37.6755 141.578 39.3096 142.06 41.3609 138.607C43.3562 135.244 43.081 133.575 45.9235 132.9C49.4025 133.33 49.1961 135.308 51.4839 138.602C53.7716 141.896 55.3542 141.303 55.3542 141.303C61.28 139.781 61.8735 132.384 61.8735 132.384Z" fill="#AE7461"/>
<path d="M38.0111 126.355C37.6691 126.593 37.2642 126.725 36.8474 126.733C36.4307 126.741 36.021 126.625 35.67 126.401C35.319 126.176 35.0425 125.852 34.8756 125.47C34.7087 125.088 34.6588 124.665 34.7321 124.255C34.8055 123.845 34.999 123.465 35.2879 123.165C35.5769 122.865 35.9485 122.657 36.3556 122.568C36.7628 122.479 37.1872 122.512 37.5753 122.664C37.9633 122.816 38.2976 123.08 38.5357 123.422C38.6943 123.649 38.8066 123.905 38.8661 124.175C38.9256 124.446 38.9311 124.725 38.8824 124.997C38.8336 125.27 38.7316 125.53 38.5821 125.763C38.4325 125.996 38.2385 126.197 38.0111 126.355Z" fill="#263238"/>
<path d="M56.889 125.977C56.547 126.215 56.1421 126.346 55.7254 126.354C55.3087 126.363 54.8989 126.247 54.5479 126.022C54.1969 125.797 53.9205 125.474 53.7535 125.092C53.5866 124.71 53.5367 124.287 53.6101 123.877C53.6835 123.466 53.8769 123.087 54.1659 122.787C54.4548 122.486 54.8264 122.278 55.2335 122.189C55.6407 122.1 56.0651 122.134 56.4532 122.286C56.8413 122.438 57.1755 122.702 57.4136 123.044C57.7317 123.503 57.8551 124.069 57.7568 124.618C57.6585 125.168 57.3465 125.656 56.889 125.977Z" fill="#263238"/>
<g opacity="0.2">
<path d="M61.6671 133.67C55.9906 128.135 53.333 124.476 48.1984 123.633L47.9146 123.59C46.3613 123.25 44.7494 123.285 43.2126 123.693C41.6757 124.1 40.2581 124.869 39.0774 125.933C37.4519 127.426 36.7122 129.739 34.8029 130.853C33.9428 131.343 32.3302 131.692 31.6507 132.388C31.3426 132.704 31.118 133.091 30.9971 133.515C31.3196 135.334 32.6914 140.675 37.6669 141.565C37.6669 141.565 39.301 142.047 41.3523 138.594C43.3476 135.231 43.0724 133.562 45.9149 132.887C49.3939 133.317 49.1875 135.295 51.4753 138.589C53.763 141.883 55.3456 141.29 55.3456 141.29C59.7362 140.185 61.1983 135.859 61.6671 133.67Z" fill="black"/>
</g>
<path d="M49.2389 125.903C49.068 125.561 48.7881 125.286 48.4433 125.121H48.4218C48.2039 125.002 47.973 124.908 47.7337 124.841C46.6262 124.417 45.4011 124.417 44.2935 124.841C43.7416 125.005 43.2583 125.345 42.9174 125.809C42.7547 126.044 42.6748 126.327 42.6904 126.613C42.706 126.898 42.8161 127.171 43.0034 127.387C43.4334 127.817 44.1559 127.757 44.6633 128.092C44.9633 128.349 45.2344 128.637 45.4718 128.952C45.5934 129.107 45.7592 129.222 45.9472 129.281C46.1353 129.34 46.3368 129.341 46.5254 129.284C46.9554 129.073 47.0156 128.423 47.4112 128.11C47.8069 127.796 48.3444 127.963 48.7572 127.735C49.2776 127.421 49.4668 126.45 49.2389 125.903Z" fill="#263238"/>
<path d="M53.4015 125.774C53.4015 125.774 53.337 125.749 53.2252 125.684L52.7392 125.405C52.1447 125.061 51.5301 124.754 50.8987 124.484C49.9647 124.08 48.988 123.783 47.9873 123.598C46.7642 123.371 45.5104 123.364 44.2848 123.577C43.0547 123.786 41.8826 124.252 40.8445 124.944C40.3951 125.245 39.9786 125.593 39.6017 125.981C39.2783 126.326 38.9781 126.692 38.7029 127.077C38.1912 127.783 37.7998 128.367 37.5031 128.759C37.3569 128.957 37.2365 129.103 37.1548 129.189C37.1144 129.24 37.0698 129.287 37.0215 129.331C37.0495 129.271 37.0857 129.216 37.129 129.167L37.4515 128.707C37.731 128.312 38.1052 127.714 38.604 126.987C38.8794 126.594 39.1796 126.219 39.5028 125.865C39.8828 125.466 40.302 125.108 40.7542 124.794C41.8048 124.086 42.9933 123.608 44.2417 123.392C45.4877 123.174 46.7628 123.186 48.0045 123.426C49.0133 123.62 49.9961 123.93 50.9331 124.351C51.5635 124.635 52.1741 124.961 52.7607 125.327C52.9671 125.456 53.1262 125.559 53.2295 125.637C53.2906 125.678 53.3482 125.724 53.4015 125.774Z" fill="#263238"/>
<path d="M32.2052 100.282C30.9409 98.7038 29.3627 96.9793 27.3459 97.0653C26.6859 97.1278 26.05 97.3449 25.4896 97.6991C24.9293 98.0532 24.4603 98.5344 24.1206 99.1037C23.4517 100.247 23.0311 101.519 22.8864 102.836C22.1059 107.937 22.8541 113.155 25.0366 117.832C26.1246 120.158 27.8189 122.506 30.3346 123.039L40.9908 111.192L32.2052 100.282Z" fill="#AE7461"/>
<path d="M59.9125 101.017C61.2327 99.4864 62.8754 97.8222 64.8879 97.9813C65.5443 98.0684 66.171 98.3084 66.7177 98.6818C67.2644 99.0553 67.7159 99.5518 68.0358 100.131C68.6609 101.3 69.0344 102.586 69.1324 103.907C69.7287 109.034 68.7919 114.222 66.4404 118.816C65.2664 121.104 63.486 123.388 60.9574 123.831L50.7441 111.596L59.9125 101.017Z" fill="#AE7461"/>
<path d="M39.873 111.226C39.696 111.302 39.5151 111.368 39.3311 111.424C38.8366 111.596 38.3527 111.797 37.8819 112.026C36.3229 112.777 34.9415 113.851 33.8294 115.177C32.7172 116.502 31.8998 118.049 31.4314 119.715C31.2889 120.22 31.1754 120.733 31.0917 121.25C31.0715 121.441 31.0399 121.631 30.9971 121.818C30.9971 121.818 30.9971 121.766 30.9971 121.668C30.9971 121.569 30.9971 121.422 31.0315 121.237C31.0912 120.714 31.1889 120.195 31.3239 119.685C31.7656 117.994 32.5777 116.422 33.7015 115.083C34.8253 113.745 36.2326 112.672 37.8217 111.944C38.2989 111.721 38.7919 111.533 39.2967 111.381C39.4773 111.325 39.6192 111.299 39.7267 111.274C39.7733 111.252 39.8225 111.236 39.873 111.226Z" fill="#263238"/>
<path d="M45.6436 110.237C45.7107 110.23 45.7785 110.23 45.8457 110.237C45.979 110.237 46.1725 110.237 46.4262 110.237C47.1365 110.247 47.8457 110.296 48.5506 110.383C50.8935 110.626 53.1695 111.309 55.2591 112.396C56.3995 113.021 57.4319 113.825 58.3166 114.778C59.0306 115.564 59.6195 116.454 60.0626 117.419C60.3531 118.069 60.5834 118.744 60.7506 119.436C60.7979 119.668 60.8323 119.866 60.8624 120.003C60.8791 120.07 60.8892 120.137 60.8925 120.205C60.8665 120.143 60.8464 120.078 60.8323 120.012L60.6861 119.453C60.5002 118.771 60.2556 118.106 59.9551 117.466C59.5032 116.524 58.9133 115.654 58.2048 114.886C57.3287 113.955 56.3132 113.166 55.1946 112.547C53.1251 111.464 50.8774 110.763 48.5592 110.478C47.669 110.358 46.9466 110.306 46.4434 110.28L45.8672 110.259C45.792 110.261 45.7169 110.253 45.6436 110.237Z" fill="#263238"/>
<path d="M61.873 132.384C61.8787 132.454 61.8787 132.525 61.873 132.595C61.873 132.737 61.8343 132.943 61.7913 133.214C61.6577 133.996 61.4592 134.766 61.1978 135.515C60.7947 136.691 60.1925 137.789 59.4175 138.761C58.9327 139.36 58.3617 139.883 57.7232 140.314C57.011 140.792 56.2229 141.145 55.3924 141.359C55.1442 141.423 54.8837 141.423 54.6355 141.359C54.3885 141.303 54.1499 141.215 53.926 141.096C53.4703 140.847 53.0531 140.533 52.6875 140.163C51.9296 139.377 51.2697 138.502 50.7222 137.557C50.4341 137.076 50.1546 136.573 49.8621 136.065C49.5942 135.55 49.2925 135.053 48.9591 134.577C48.6156 134.097 48.1593 133.708 47.6303 133.446C47.0848 133.201 46.5044 133.043 45.9101 132.977H45.9402C45.4326 133.092 44.9473 133.29 44.5039 133.562C43.6826 134.091 43.2568 135.003 42.8526 135.859C42.4484 136.714 42.0441 137.579 41.5625 138.374C41.123 139.172 40.584 139.91 39.9585 140.572C39.6481 140.888 39.2949 141.158 38.9092 141.376C38.523 141.612 38.0675 141.707 37.6191 141.647C36.4401 141.44 35.3341 140.933 34.4067 140.176C33.5851 139.492 32.8982 138.661 32.3813 137.725C31.9298 136.917 31.5692 136.062 31.3062 135.175C31.0929 134.431 30.9447 133.67 30.8633 132.9C30.6482 131.666 30.4848 130.703 30.3687 130.036C30.3171 129.714 30.2741 129.468 30.244 129.292C30.244 129.21 30.244 129.15 30.2182 129.099C30.2163 129.077 30.2163 129.056 30.2182 129.034C30.2182 129.034 30.2182 129.056 30.2182 129.099L30.2612 129.288C30.2956 129.46 30.3429 129.718 30.4031 130.027L30.9493 132.9C31.0478 133.656 31.2133 134.401 31.4438 135.128C31.7099 136.006 32.0719 136.853 32.5232 137.652C33.0369 138.57 33.7164 139.385 34.5271 140.056C35.4404 140.791 36.5247 141.284 37.6793 141.488C38.0847 141.531 38.493 141.439 38.8404 141.225C39.2127 141.016 39.553 140.754 39.851 140.447C40.4632 139.799 40.9919 139.077 41.4249 138.297C41.885 137.501 42.2849 136.654 42.6892 135.786C42.8874 135.341 43.1143 134.91 43.3686 134.495C43.6314 134.069 43.9817 133.702 44.3964 133.42C44.8562 133.136 45.3607 132.931 45.8886 132.814H45.9187C46.5373 132.881 47.1412 133.047 47.7077 133.304C48.2604 133.575 48.7365 133.98 49.0924 134.483C49.4321 134.963 49.7368 135.468 50.0041 135.992C50.2793 136.504 50.5545 136.998 50.8383 137.48C51.3778 138.414 52.0275 139.281 52.7735 140.06C53.1266 140.421 53.5309 140.728 53.9733 140.972C54.1859 141.086 54.413 141.172 54.6484 141.225C54.8715 141.281 55.1048 141.281 55.3279 141.225C56.1445 141.017 56.9206 140.674 57.6242 140.211C58.2547 139.788 58.8197 139.275 59.3014 138.688C60.083 137.73 60.6939 136.645 61.1075 135.48C61.3798 134.739 61.5898 133.977 61.7354 133.201C61.787 132.934 61.8214 132.728 61.8386 132.59C61.8558 132.453 61.873 132.384 61.873 132.384Z" fill="#263238"/>
<path d="M46.3708 129.094C46.4386 129.737 46.4256 130.386 46.3321 131.025C46.291 131.672 46.1682 132.31 45.9666 132.926C45.9193 132.926 46.0569 132.066 46.1644 131.008C46.2719 129.95 46.3235 129.094 46.3708 129.094Z" fill="#263238"/>
<path d="M37.8258 134.956C37.8175 135.004 37.7997 135.05 37.7736 135.091C37.7475 135.132 37.7134 135.168 37.6734 135.196C37.6335 135.224 37.5883 135.243 37.5407 135.254C37.493 135.264 37.4438 135.265 37.3958 135.257C37.3448 135.251 37.2955 135.235 37.251 135.21C37.2064 135.185 37.1675 135.151 37.1367 135.11C37.1059 135.069 37.0838 135.022 37.0719 134.972C37.0599 134.922 37.0583 134.87 37.0672 134.82C37.076 134.77 37.0951 134.721 37.1233 134.679C37.1516 134.636 37.1882 134.599 37.2311 134.571C37.2741 134.543 37.3223 134.524 37.3728 134.516C37.4233 134.507 37.475 134.509 37.5248 134.521C37.5733 134.53 37.6197 134.547 37.6612 134.574C37.7027 134.6 37.7385 134.635 37.7666 134.675C37.7946 134.716 37.8143 134.761 37.8244 134.809C37.8346 134.858 37.8351 134.907 37.8258 134.956Z" fill="#263238"/>
<path d="M39.7266 132.672C39.72 132.722 39.7033 132.771 39.6774 132.814C39.6516 132.858 39.6172 132.896 39.5762 132.926C39.5353 132.956 39.4887 132.977 39.4393 132.988C39.3899 133 39.3387 133.001 39.2888 132.992C39.239 132.983 39.1914 132.964 39.1492 132.936C39.1069 132.908 39.0707 132.871 39.0429 132.829C39.0151 132.787 38.9961 132.739 38.9872 132.689C38.9784 132.639 38.9797 132.588 38.9912 132.539C39.013 132.445 39.0699 132.364 39.1501 132.311C39.2304 132.258 39.3278 132.238 39.4223 132.256C39.5168 132.273 39.6011 132.325 39.6577 132.403C39.7143 132.481 39.739 132.577 39.7266 132.672Z" fill="#263238"/>
<path d="M41.885 134.577C41.8632 134.671 41.8063 134.752 41.7261 134.805C41.6458 134.858 41.5484 134.878 41.4539 134.86C41.3594 134.843 41.2751 134.79 41.2185 134.713C41.1618 134.635 41.1372 134.539 41.1496 134.444C41.1714 134.35 41.2283 134.269 41.3086 134.216C41.3888 134.163 41.4863 134.143 41.5808 134.161C41.6752 134.178 41.7595 134.23 41.8161 134.308C41.8728 134.386 41.8974 134.482 41.885 134.577Z" fill="#263238"/>
<path d="M43.3644 132.221C43.3418 132.313 43.2851 132.393 43.2056 132.445C43.1261 132.497 43.0299 132.516 42.9364 132.5C42.843 132.484 42.7592 132.432 42.7021 132.356C42.6451 132.281 42.619 132.186 42.6291 132.092C42.6346 132.041 42.6504 131.991 42.6757 131.947C42.701 131.902 42.7352 131.863 42.7761 131.833C42.8171 131.802 42.8639 131.78 42.9137 131.768C42.9635 131.756 43.0153 131.754 43.0657 131.763C43.1162 131.772 43.1643 131.791 43.2071 131.819C43.2498 131.847 43.2864 131.884 43.3144 131.927C43.3424 131.97 43.3613 132.018 43.3699 132.069C43.3785 132.119 43.3766 132.171 43.3644 132.221Z" fill="#263238"/>
<path d="M39.3476 137.037C39.3352 137.11 39.3014 137.178 39.2504 137.232C39.1993 137.286 39.1334 137.323 39.061 137.34C38.9886 137.356 38.9129 137.351 38.8437 137.324C38.7744 137.297 38.7147 137.25 38.6721 137.189C38.6295 137.129 38.606 137.056 38.6046 136.982C38.6031 136.908 38.6238 136.835 38.6639 136.773C38.7041 136.71 38.7619 136.661 38.83 136.631C38.8981 136.602 38.9735 136.593 39.0465 136.607C39.1426 136.626 39.2276 136.681 39.2837 136.761C39.3399 136.841 39.3627 136.94 39.3476 137.037Z" fill="#263238"/>
<path d="M55.3582 135.48C55.3411 135.577 55.3632 135.677 55.4196 135.758C55.4761 135.838 55.5623 135.893 55.6592 135.91C55.7562 135.927 55.8559 135.905 55.9366 135.849C56.0172 135.792 56.0721 135.706 56.0892 135.609C56.0977 135.561 56.0967 135.512 56.0861 135.464C56.0756 135.417 56.0558 135.372 56.0278 135.332C55.9998 135.292 55.9643 135.258 55.9232 135.232C55.8821 135.206 55.8362 135.188 55.7882 135.179C55.7402 135.171 55.691 135.172 55.6434 135.182C55.5958 135.193 55.5508 135.213 55.5109 135.241C55.4709 135.269 55.4369 135.304 55.4107 135.345C55.3845 135.386 55.3667 135.432 55.3582 135.48Z" fill="#263238"/>
<path d="M53.6724 133.003C53.66 133.075 53.6691 133.149 53.6987 133.216C53.7283 133.283 53.777 133.339 53.8386 133.378C53.9003 133.417 53.9722 133.438 54.0452 133.436C54.1182 133.434 54.1891 133.411 54.2489 133.369C54.3087 133.327 54.3548 133.269 54.3814 133.201C54.4079 133.132 54.4137 133.058 54.398 132.987C54.3824 132.915 54.3459 132.85 54.2933 132.8C54.2407 132.749 54.1743 132.715 54.1024 132.702C54.0544 132.693 54.0051 132.694 53.9575 132.705C53.9098 132.715 53.8647 132.735 53.8247 132.763C53.7848 132.791 53.7507 132.827 53.7246 132.868C53.6984 132.909 53.6807 132.955 53.6724 133.003Z" fill="#263238"/>
<path d="M51.3892 133.893C51.3768 133.965 51.3859 134.039 51.4155 134.106C51.4451 134.173 51.4938 134.229 51.5554 134.269C51.6171 134.308 51.689 134.328 51.762 134.326C51.835 134.324 51.9059 134.301 51.9657 134.259C52.0255 134.217 52.0716 134.159 52.0982 134.091C52.1247 134.023 52.1305 133.948 52.1148 133.877C52.0992 133.806 52.0627 133.741 52.0101 133.69C51.9575 133.639 51.8911 133.605 51.8192 133.592C51.7712 133.584 51.7219 133.585 51.6743 133.595C51.6266 133.606 51.5815 133.625 51.5415 133.653C51.5016 133.681 51.4675 133.717 51.4414 133.758C51.4152 133.799 51.3975 133.845 51.3892 133.893Z" fill="#263238"/>
<path d="M50.4133 131.322C50.4031 131.416 50.4293 131.511 50.4863 131.587C50.5434 131.662 50.6271 131.714 50.7206 131.73C50.8141 131.747 50.9103 131.727 50.9898 131.675C51.0692 131.623 51.126 131.543 51.1486 131.451C51.1608 131.401 51.1627 131.349 51.1541 131.299C51.1455 131.248 51.1266 131.2 51.0986 131.157C51.0705 131.114 51.034 131.078 50.9913 131.049C50.9485 131.021 50.9004 131.002 50.8499 130.993C50.7994 130.984 50.7477 130.986 50.6979 130.998C50.6481 131.01 50.6012 131.032 50.5603 131.063C50.5194 131.094 50.4852 131.132 50.4599 131.177C50.4346 131.222 50.4187 131.271 50.4133 131.322Z" fill="#263238"/>
<path d="M53.0357 136.568C53.0232 136.64 53.0324 136.714 53.062 136.781C53.0916 136.848 53.1403 136.904 53.2019 136.943C53.2636 136.983 53.3354 137.003 53.4085 137.001C53.4815 136.999 53.5524 136.976 53.6122 136.934C53.672 136.892 53.7181 136.834 53.7446 136.766C53.7712 136.698 53.777 136.623 53.7613 136.552C53.7457 136.481 53.7092 136.415 53.6566 136.365C53.604 136.314 53.5376 136.28 53.4657 136.267C53.4176 136.258 53.3682 136.258 53.3203 136.269C53.2724 136.279 53.2271 136.299 53.187 136.327C53.1469 136.355 53.1128 136.391 53.0868 136.432C53.0608 136.474 53.0434 136.52 53.0357 136.568Z" fill="#263238"/>
<path d="M38.6734 117.961C38.6734 118.193 38.4025 118.391 38.0026 118.601C37.4969 118.841 36.9753 119.045 36.4415 119.212C35.2245 119.612 34.1366 119.883 33.8828 119.492C33.7624 119.298 33.8828 118.963 34.257 118.606C34.7273 118.162 35.2918 117.83 35.9083 117.634C36.528 117.413 37.1915 117.344 37.8435 117.432C38.3681 117.522 38.6691 117.737 38.6734 117.961Z" fill="#263238"/>
<path d="M57.2164 117.548C57.1347 117.767 56.7864 117.862 56.3563 117.905C55.7978 117.94 55.2377 117.94 54.6792 117.905C53.3891 117.84 52.2882 117.703 52.1893 117.247C52.142 117.027 52.3914 116.761 52.8558 116.554C53.4579 116.309 54.1075 116.201 54.7566 116.241C55.414 116.257 56.0581 116.429 56.6358 116.744C57.0917 117.027 57.2981 117.337 57.2164 117.548Z" fill="#263238"/>
<path d="M48.8472 122.399C48.8472 122.424 48.4817 122.33 47.9011 122.231C47.1425 122.104 46.3735 122.051 45.6047 122.072C44.8362 122.095 44.0716 122.192 43.3213 122.36C42.7407 122.493 42.3924 122.605 42.3838 122.579C42.4575 122.532 42.537 122.494 42.6203 122.467C42.8398 122.382 43.0637 122.309 43.2912 122.248C44.8021 121.833 46.3909 121.789 47.9226 122.119C48.1537 122.167 48.382 122.227 48.6064 122.3C48.6908 122.321 48.7719 122.355 48.8472 122.399Z" fill="#263238"/>
<g opacity="0.2">
<path d="M31.4748 119.324C30.9372 121.306 27.5443 117.999 26.4692 116.249C25.3941 114.499 24.977 112.435 24.577 110.422C24.0481 107.773 23.5191 105.034 24.0911 102.389C24.25 101.483 24.6362 100.632 25.2135 99.9165C25.5041 99.5618 25.8747 99.281 26.2947 99.0971C26.7148 98.9132 27.1725 98.8315 27.6303 98.8586C28.658 98.9661 29.4837 99.7187 30.1632 100.514C32.5063 103.196 34.1113 106.442 34.8204 109.932C35.0914 111.278 35.573 113.011 34.743 114.103C33.2082 115.521 32.08 117.324 31.4748 119.324Z" fill="black"/>
</g>
<g opacity="0.2">
<path d="M60.9014 119.81C61.2626 121.831 64.2169 118.554 65.4382 116.907C66.6595 115.26 67.2616 113.239 67.8378 111.265C68.5486 108.861 68.719 106.329 68.3366 103.851C68.1659 102.656 67.8074 101.495 67.2745 100.411C66.8788 99.5854 65.8123 98.6909 64.8964 98.6909C63.8643 98.6909 62.8365 99.3962 62.0883 100.11C59.5296 102.561 58.6781 106.47 57.6761 109.867C57.2891 111.183 56.6569 112.878 57.388 114.026C57.4095 114.039 60.3294 116.61 60.9014 119.81Z" fill="black"/>
</g>
</svg>
