<svg width="83" height="27" viewBox="0 0 83 27" fill="none" xmlns="http://www.w3.org/2000/svg">
<path d="M1.00748 20.2159V15.7919L6.69148 9.91194C7.36349 9.20261 7.83015 8.62394 8.09149 8.17594C8.37148 7.70928 8.51148 7.24261 8.51148 6.77594C8.51148 6.19727 8.30615 5.76794 7.89549 5.48794C7.50348 5.18927 6.93415 5.03994 6.18748 5.03994C5.51548 5.03994 4.80615 5.17061 4.05948 5.43194C3.33148 5.67461 2.58482 6.06661 1.81948 6.60794L-0.00051561 2.23994C0.895484 1.58661 1.96882 1.07327 3.21948 0.699942C4.48882 0.326609 5.77682 0.139942 7.08348 0.139942C9.47282 0.139942 11.2835 0.653275 12.5155 1.67994C13.7662 2.68794 14.3915 4.14394 14.3915 6.04794C14.3915 7.24261 14.1302 8.38128 13.6075 9.46394C13.0848 10.5466 12.1702 11.7039 10.8635 12.9359L6.74748 16.8559V15.3439H15.0915V20.2159H1.00748Z" fill="#D3AFFF"/>
<path d="M16.5645 26.4319C16.2099 26.4319 15.8272 26.4039 15.4165 26.3479C14.9872 26.2919 14.6139 26.1986 14.2965 26.0679V23.2959C14.5392 23.3706 14.8005 23.4359 15.0805 23.4919C15.3605 23.5479 15.6312 23.5759 15.8925 23.5759C16.5645 23.5759 17.0872 23.3706 17.4605 22.9599C17.8525 22.5493 18.0485 21.8586 18.0485 20.8879V6.07594H21.5485V21.0839C21.5485 22.8386 21.1472 24.1639 20.3445 25.0599C19.5419 25.9746 18.2819 26.4319 16.5645 26.4319ZM17.8245 3.41594V-5.93662e-05H21.7165V3.41594H17.8245ZM31.6493 20.4959C30.1933 20.4959 28.9333 20.1973 27.8693 19.5999C26.8053 19.0026 25.9747 18.1533 25.3773 17.0519C24.7987 15.9506 24.5093 14.6439 24.5093 13.1319C24.5093 11.6199 24.7987 10.3226 25.3773 9.23994C25.9747 8.13861 26.8053 7.28927 27.8693 6.69194C28.9333 6.09461 30.1933 5.79594 31.6493 5.79594C33.1053 5.79594 34.3653 6.09461 35.4293 6.69194C36.512 7.28927 37.3427 8.13861 37.9213 9.23994C38.5187 10.3226 38.8173 11.6199 38.8173 13.1319C38.8173 14.6439 38.5187 15.9506 37.9213 17.0519C37.3427 18.1533 36.512 19.0026 35.4293 19.5999C34.3653 20.1973 33.1053 20.4959 31.6493 20.4959ZM31.6493 17.8079C32.7507 17.8079 33.628 17.4253 34.2813 16.6599C34.9347 15.8759 35.2613 14.6999 35.2613 13.1319C35.2613 11.5639 34.9347 10.3973 34.2813 9.63194C33.628 8.86661 32.7507 8.48394 31.6493 8.48394C30.548 8.48394 29.6707 8.86661 29.0173 9.63194C28.364 10.3973 28.0373 11.5639 28.0373 13.1319C28.0373 14.6999 28.364 15.8759 29.0173 16.6599C29.6707 17.4253 30.548 17.8079 31.6493 17.8079ZM46.9316 20.4959C45.1956 20.4959 43.8983 20.0199 43.0396 19.0679C42.181 18.1159 41.7516 16.6599 41.7516 14.6999V6.07594H45.2516V14.6719C45.2516 15.7173 45.4663 16.4919 45.8956 16.9959C46.325 17.4813 46.9783 17.7239 47.8556 17.7239C48.845 17.7239 49.6476 17.3879 50.2636 16.7159C50.8983 16.0439 51.2156 15.1573 51.2156 14.0559V6.07594H54.7156V20.2159H51.2996V17.3319H51.6916C51.281 18.3399 50.6556 19.1239 49.8156 19.6839C48.9943 20.2253 48.033 20.4959 46.9316 20.4959ZM58.4873 20.2159V9.68794C58.4873 9.09061 58.4687 8.48394 58.4313 7.86794C58.4127 7.25194 58.366 6.65461 58.2913 6.07594H61.6793L62.0713 9.93994H61.5113C61.698 9.00661 62.006 8.23194 62.4353 7.61594C62.8833 6.99994 63.4247 6.54261 64.0593 6.24394C64.694 5.94527 65.3847 5.79594 66.1313 5.79594C66.4673 5.79594 66.738 5.81461 66.9433 5.85194C67.1487 5.87061 67.354 5.91728 67.5593 5.99194L67.5313 9.07194C67.1767 8.92261 66.8687 8.82928 66.6073 8.79194C66.3647 8.75461 66.0567 8.73594 65.6833 8.73594C64.8807 8.73594 64.1993 8.90394 63.6393 9.23994C63.098 9.57594 62.6873 10.0426 62.4073 10.6399C62.146 11.2373 62.0153 11.9186 62.0153 12.6839V20.2159H58.4873ZM69.5075 20.2159V9.60394C69.5075 9.02528 69.4888 8.43727 69.4515 7.83994C69.4142 7.24261 69.3582 6.65461 69.2835 6.07594H72.6715L72.9515 8.87594H72.6155C73.0635 7.88661 73.7262 7.13061 74.6035 6.60794C75.4808 6.06661 76.4982 5.79594 77.6555 5.79594C79.3168 5.79594 80.5675 6.26261 81.4075 7.19594C82.2475 8.12928 82.6675 9.58528 82.6675 11.5639V20.2159H79.1675V11.7319C79.1675 10.5933 78.9435 9.78128 78.4955 9.29594C78.0662 8.79194 77.4128 8.53994 76.5355 8.53994C75.4528 8.53994 74.5942 8.87594 73.9595 9.54794C73.3248 10.2199 73.0075 11.1159 73.0075 12.2359V20.2159H69.5075Z" fill="white"/>
</svg>
