<svg width="200" height="194" viewBox="0 0 200 194" fill="none" xmlns="http://www.w3.org/2000/svg">
<path d="M42.8581 18.5172V22.4592C42.8581 23.6985 41.9826 24.206 40.9083 23.5843L22.8776 13.171C22.3087 12.8009 21.8354 12.3013 21.4965 11.7132C21.1576 11.1251 20.9627 10.4652 20.9277 9.78736V5.85808C20.9277 4.61458 21.799 4.11126 22.8776 4.73301L40.9083 15.142C41.4754 15.5121 41.9474 16.0105 42.2861 16.5968C42.6249 17.1832 42.8208 17.8411 42.8581 18.5172Z" fill="#F0F0F0"/>
<path d="M48.4284 95.3984V99.3403C48.4284 100.584 47.5571 101.087 46.4786 100.465L28.4479 90.0564C27.8797 89.6855 27.407 89.1858 27.0682 88.5978C26.7294 88.0099 26.5341 87.3503 26.498 86.6727V82.7308C26.498 81.4873 27.3736 80.9839 28.4479 81.6057L46.4786 92.0189C47.0474 92.3882 47.5207 92.8869 47.8596 93.4743C48.1985 94.0617 48.3935 94.7211 48.4284 95.3984Z" fill="#F0F0F0"/>
<path d="M83.9616 86.0467V89.9886C83.9616 91.2279 83.0903 91.7312 82.0118 91.1137L63.9811 80.7005C63.4122 80.3303 62.9389 79.8307 62.6 79.2427C62.2612 78.6546 62.0662 77.9946 62.0312 77.3168V73.3748C62.0312 72.1356 62.9025 71.6322 63.9811 72.254L82.0118 82.663C82.5807 83.0332 83.054 83.5327 83.3928 84.1208C83.7317 84.7089 83.9266 85.3688 83.9616 86.0467Z" fill="#E0E0E0"/>
<path d="M49.2448 55.3019V59.2438C49.2448 60.4831 48.3735 60.9907 47.2992 60.3689L29.2728 49.9557C28.7049 49.5848 28.2326 49.085 27.8945 48.497C27.5564 47.909 27.362 47.2494 27.3271 46.572V42.6301C27.3271 41.3866 28.1984 40.8832 29.2728 41.505L47.3077 51.914C47.8743 52.2865 48.3451 52.7874 48.6817 53.3761C49.0183 53.9648 49.2112 54.6246 49.2448 55.3019Z" fill="#E0E0E0"/>
<path d="M59.3962 113.759V117.701C59.3962 118.944 58.5249 119.448 57.4464 118.826L39.4114 108.396C38.8435 108.025 38.3713 107.525 38.0332 106.937C37.6951 106.349 37.5007 105.69 37.4658 105.012V101.07C37.4658 99.8267 38.3371 99.3234 39.4114 99.9452L57.4421 110.354C58.0146 110.726 58.4904 111.229 58.8302 111.821C59.17 112.413 59.364 113.077 59.3962 113.759Z" fill="#E0E0E0"/>
<path d="M17.0579 23.2671L35.0886 33.6803C35.658 34.05 36.1316 34.5494 36.4706 35.1376C36.8095 35.7258 37.0041 36.386 37.0385 37.064V41.0059C37.0385 42.2494 36.1672 42.7528 35.0886 42.131L17.0579 31.7093C16.4903 31.3382 16.0182 30.8383 15.6801 30.2503C15.342 29.6624 15.1475 29.003 15.1123 28.3256V24.3921C15.1123 23.1486 15.9836 22.6453 17.0579 23.2671Z" fill="#F0F0F0"/>
<path d="M40.9467 37.0597L58.9732 47.4898C59.5409 47.861 60.0129 48.3608 60.351 48.9488C60.6891 49.5367 60.8836 50.1962 60.9188 50.8735V54.8155C60.9188 56.0547 60.0475 56.5623 58.9732 55.9405L40.9425 45.5273C40.3736 45.1571 39.9004 44.6576 39.5615 44.0695C39.2226 43.4814 39.0277 42.8215 38.9927 42.1436V38.1847C38.9969 36.9412 39.8682 36.4379 40.9467 37.0597Z" fill="#F0F0F0"/>
<path d="M110.231 98.9638L128.262 109.373C128.831 109.743 129.304 110.243 129.643 110.831C129.982 111.419 130.177 112.079 130.212 112.756V116.698C130.212 117.942 129.34 118.445 128.262 117.824L110.231 107.41C109.662 107.04 109.189 106.54 108.85 105.952C108.512 105.364 108.317 104.704 108.281 104.027V100.085C108.281 98.8454 109.157 98.3421 110.231 98.9638Z" fill="#F0F0F0"/>
<path d="M97.7073 81.0262L115.738 91.4352C116.307 91.8054 116.78 92.3049 117.119 92.893C117.458 93.4811 117.653 94.141 117.688 94.8189V98.7609C117.688 100.004 116.817 100.508 115.738 99.8859L97.7073 89.4727C97.1392 89.1021 96.6668 88.6023 96.3286 88.0142C95.9905 87.4262 95.7962 86.7665 95.7617 86.089V82.1724C95.7702 80.9036 96.6161 80.4045 97.7073 81.0262Z" fill="#F0F0F0"/>
<path d="M181.284 35.0084L199.315 45.4216C199.567 45.5711 199.798 45.7547 200 45.9672V54.1049C199.758 54.0675 199.526 53.9842 199.315 53.8596L181.284 43.4506C180.716 43.0797 180.243 42.58 179.905 41.9921C179.566 41.4041 179.37 40.7446 179.334 40.067V36.125C179.334 34.8942 180.21 34.3782 181.284 35.0084Z" fill="#F0F0F0"/>
<path d="M189.194 52.1424V56.0843C189.194 57.3278 188.322 57.8312 187.244 57.2094L169.213 46.8004C168.645 46.4295 168.172 45.9298 167.833 45.3418C167.495 44.7539 167.299 44.0944 167.263 43.4167V39.4748C167.263 38.2313 168.139 37.728 169.213 38.3497L187.244 48.7629C187.813 49.1319 188.286 49.6306 188.625 50.2181C188.964 50.8056 189.159 51.465 189.194 52.1424Z" fill="#F0F0F0"/>
<path d="M189.194 135.232V139.174C189.194 140.418 188.322 140.921 187.244 140.299L169.213 129.891C168.645 129.52 168.172 129.02 167.833 128.432C167.495 127.844 167.299 127.184 167.263 126.507V122.565C167.263 121.321 168.139 120.818 169.213 121.44L187.244 131.853C187.813 132.222 188.286 132.721 188.625 133.308C188.964 133.896 189.159 134.555 189.194 135.232Z" fill="#F0F0F0"/>
<path d="M192.674 93.3554L200 97.585V106.044L192.674 101.815C192.106 101.444 191.634 100.944 191.295 100.356C190.956 99.768 190.761 99.1085 190.725 98.4309V94.4804C190.725 93.2369 191.6 92.7463 192.674 93.3554Z" fill="#F0F0F0"/>
<path d="M157.823 62.9447L175.858 73.3579C176.425 73.7288 176.898 74.2286 177.236 74.8166C177.574 75.4046 177.768 76.0642 177.803 76.7416V80.6835C177.803 81.927 176.932 82.4304 175.858 81.8086L157.823 71.3869C157.255 71.0158 156.783 70.5159 156.445 69.928C156.107 69.34 155.912 68.6806 155.877 68.0033V64.0697C155.877 62.8263 156.748 62.3229 157.823 62.9447Z" fill="#E0E0E0"/>
<path d="M110.9 15.1716L128.935 25.5806C129.502 25.9517 129.974 26.4516 130.312 27.0396C130.651 27.6275 130.845 28.287 130.88 28.9643V32.9062C130.88 34.1497 130.009 34.6531 128.935 34.0313L110.9 23.6096C110.332 23.239 109.859 22.7392 109.521 22.1512C109.183 21.5631 108.989 20.9034 108.954 20.226V16.2967C108.954 15.0532 109.825 14.5499 110.9 15.1716Z" fill="#F0F0F0"/>
<path d="M88.9733 32.6864L107.004 43.0954C107.573 43.4655 108.046 43.9651 108.385 44.5532C108.724 45.1413 108.919 45.8012 108.954 46.479V50.421C108.954 51.6603 108.083 52.1636 107.004 51.5461L88.9733 41.1455C88.4051 40.7746 87.9324 40.2749 87.5936 39.687C87.2548 39.099 87.0594 38.4395 87.0234 37.7619V33.8199C87.0234 32.5722 87.899 32.0688 88.9733 32.6864Z" fill="#F0F0F0"/>
<path d="M86.2076 0.266559L104.23 10.6925C104.798 11.0636 105.27 11.5635 105.608 12.1514C105.946 12.7394 106.14 13.3988 106.176 14.0761V18.0139C106.176 19.2574 105.304 19.7607 104.23 19.139L86.2076 8.70881C85.6387 8.33864 85.1655 7.83909 84.8266 7.251C84.4877 6.66291 84.2928 6.00298 84.2578 5.32514V1.3874C84.2578 0.148131 85.1291 -0.355189 86.2076 0.266559Z" fill="#E0E0E0"/>
<path d="M148.014 5.47746L166.045 15.8907C166.614 16.2609 167.087 16.7604 167.426 17.3485C167.765 17.9366 167.96 18.5965 167.995 19.2744V23.2121C167.995 24.4556 167.124 24.9589 166.045 24.3372L148.014 13.9197C147.445 13.5495 146.972 13.05 146.633 12.4619C146.294 11.8738 146.099 11.2139 146.064 10.536V6.60253C146.064 5.36327 146.948 4.85994 148.014 5.47746Z" fill="#E0E0E0"/>
<path d="M145.751 87.2479L163.782 97.6527C164.351 98.0223 164.825 98.5217 165.164 99.1099C165.503 99.6981 165.697 100.358 165.732 101.036V104.978C165.732 106.222 164.861 106.725 163.782 106.103L145.751 95.6944C145.184 95.3232 144.712 94.8233 144.373 94.2354C144.035 93.6474 143.841 92.988 143.806 92.3107V88.3687C143.806 87.121 144.677 86.6177 145.751 87.2479Z" fill="#E0E0E0"/>
<path d="M98.4603 50.3702L116.495 60.7792C117.063 61.1503 117.535 61.6502 117.873 62.2382C118.211 62.8261 118.406 63.4856 118.441 64.1629V68.1048C118.441 69.3441 117.57 69.8474 116.495 69.2299L98.4603 58.8167C97.8926 58.4455 97.4205 57.9457 97.0825 57.3577C96.7444 56.7698 96.5498 56.1103 96.5146 55.433V51.491C96.5146 50.2518 97.3859 49.7484 98.4603 50.3702Z" fill="#E0E0E0"/>
<path d="M24.9675 81.8763V85.8183C24.9675 87.0618 24.0962 87.5651 23.0177 86.9434L4.98695 76.5302C4.41827 76.1597 3.94521 75.6601 3.60635 75.0721C3.26749 74.4841 3.07244 73.8242 3.03711 73.1465V69.2045C3.03711 67.961 3.91263 67.4577 4.98695 68.0794L23.0219 78.5011C23.5889 78.8709 24.0606 79.3694 24.3987 79.9559C24.7368 80.5423 24.9317 81.2003 24.9675 81.8763Z" fill="#E0E0E0"/>
<path d="M11.6313 103.075L0 96.3584V104.818L11.6313 111.534C12.7057 112.156 13.577 111.653 13.577 110.409V106.467C13.5437 105.788 13.3501 105.127 13.0119 104.537C12.6737 103.948 12.2006 103.446 11.6313 103.075Z" fill="#F0F0F0"/>
<path d="M11.6313 52.6796L0 45.963V54.4222L11.6313 61.1388C12.7057 61.7563 13.577 61.253 13.577 60.0137V56.0717C13.5431 55.3929 13.3491 54.7318 13.011 54.1423C12.6729 53.5528 12.2001 53.0516 11.6313 52.6796Z" fill="#F0F0F0"/>
<path d="M11.6313 11.2296L0 4.51306V12.9722L11.6313 19.6888C12.7057 20.3105 13.577 19.8072 13.577 18.5637V14.6006C13.5405 13.9253 13.3453 13.2682 13.0072 12.6825C12.6692 12.0968 12.1978 11.599 11.6313 11.2296Z" fill="#F0F0F0"/>
<path d="M118.441 32.847V36.789C118.441 38.0325 117.57 38.5358 116.495 37.9141L98.4603 27.5009C97.8921 27.1302 97.4197 26.6305 97.0816 26.0424C96.7434 25.4543 96.5492 24.7947 96.5146 24.1172V20.1879C96.5146 18.9444 97.3859 18.4411 98.4603 19.0628L116.495 29.4718C117.062 29.8417 117.534 30.3401 117.872 30.9266C118.21 31.513 118.405 32.171 118.441 32.847Z" fill="#F0F0F0"/>
<path d="M181.284 97.1959L199.315 107.609C199.567 107.759 199.798 107.942 200 108.155V116.292C199.758 116.255 199.526 116.172 199.315 116.047L181.284 105.638C180.716 105.267 180.243 104.768 179.905 104.18C179.566 103.592 179.37 102.932 179.334 102.255V98.3125C179.334 97.0817 180.21 96.5784 181.284 97.1959Z" fill="#F0F0F0"/>
<path d="M63.9811 18.2593L82.0118 28.6683C82.5807 29.0384 83.054 29.538 83.3928 30.1261C83.7317 30.7141 83.9266 31.3741 83.9616 32.0519V35.9939C83.9616 37.2374 83.0903 37.7407 82.0118 37.119L63.9811 26.6973C63.4117 26.3276 62.9381 25.8282 62.5991 25.24C62.2602 24.6518 62.0656 23.9916 62.0312 23.3136V19.3843C62.0312 18.1408 62.9025 17.6375 63.9811 18.2593Z" fill="#F0F0F0"/>
<path d="M88.9733 116.58L107.004 127.006C107.573 127.376 108.046 127.876 108.385 128.464C108.724 129.052 108.919 129.712 108.954 130.39V134.327C108.954 135.571 108.083 136.074 107.004 135.452L88.9733 125.043C88.4051 124.672 87.9324 124.173 87.5936 123.585C87.2548 122.997 87.0594 122.337 87.0234 121.66V117.701C87.0234 116.466 87.899 115.958 88.9733 116.58Z" fill="#F0F0F0"/>
<path d="M98.4603 134.26L116.495 144.673C117.063 145.044 117.535 145.544 117.873 146.132C118.212 146.72 118.406 147.379 118.441 148.057V151.999C118.441 153.242 117.57 153.745 116.495 153.124L98.4603 142.715C97.8926 142.344 97.4205 141.844 97.0825 141.256C96.7444 140.668 96.5498 140.008 96.5146 139.331V135.389C96.5146 134.146 97.3859 133.638 98.4603 134.26Z" fill="#E0E0E0"/>
<path d="M63.9811 102.153L82.0118 112.562C82.5807 112.932 83.054 113.432 83.3928 114.02C83.7317 114.608 83.9266 115.268 83.9616 115.946V119.888C83.9616 121.131 83.0903 121.634 82.0118 121.013L63.9811 110.599C63.4122 110.229 62.9389 109.73 62.6 109.142C62.2612 108.554 62.0662 107.894 62.0312 107.216V103.278C62.0312 102.051 62.9025 101.531 63.9811 102.153Z" fill="#F0F0F0"/>
<path d="M38.2904 130.136V134.078C38.2904 135.321 37.4191 135.825 36.3448 135.203L18.3099 124.79C17.7417 124.419 17.2693 123.919 16.9312 123.331C16.593 122.743 16.3988 122.083 16.3643 121.406V117.464C16.3643 116.221 17.2356 115.717 18.3099 116.339L36.3448 126.761C36.9113 127.131 37.3827 127.629 37.7207 128.216C38.0587 128.802 38.2539 129.46 38.2904 130.136Z" fill="#F0F0F0"/>
<path d="M83.9616 138.963V142.905C83.9616 144.148 83.0903 144.652 82.0118 144.03L63.9811 133.617C63.4122 133.247 62.9389 132.747 62.6 132.159C62.2612 131.571 62.0662 130.911 62.0312 130.233V126.291C62.0312 125.048 62.9025 124.544 63.9811 125.166L82.0118 135.575C82.5813 135.946 83.0549 136.446 83.3938 137.035C83.7327 137.624 83.9273 138.284 83.9616 138.963Z" fill="#E0E0E0"/>
<path d="M59.3959 166.675V170.617C59.3959 171.861 58.5246 172.364 57.446 171.742L39.4153 161.329C38.8467 160.959 38.3739 160.459 38.0358 159.871C37.6976 159.283 37.5036 158.623 37.4697 157.945V154.003C37.4697 152.76 38.341 152.257 39.4153 152.878L57.446 163.287C58.0155 163.658 58.4891 164.158 58.828 164.747C59.1669 165.336 59.3615 165.997 59.3959 166.675Z" fill="#E0E0E0"/>
<path d="M25.4833 177.541V181.483C25.4833 182.727 24.612 183.23 23.5334 182.608L5.50274 172.199C4.93508 171.828 4.46302 171.328 4.12495 170.74C3.78687 170.152 3.59233 169.493 3.55713 168.815V164.873C3.55713 163.63 4.42842 163.127 5.50274 163.748L23.5334 174.162C24.1018 174.531 24.5747 175.03 24.9136 175.618C25.2524 176.205 25.4476 176.864 25.4833 177.541Z" fill="#E0E0E0"/>
<path d="M110.231 151.88L128.262 162.293C128.831 162.663 129.305 163.162 129.644 163.751C129.983 164.339 130.177 164.999 130.212 165.677V169.619C130.212 170.862 129.34 171.366 128.262 170.744L110.231 160.335C109.663 159.964 109.19 159.464 108.851 158.876C108.513 158.289 108.317 157.629 108.281 156.951V153.009C108.281 151.762 109.157 151.258 110.231 151.88Z" fill="#F0F0F0"/>
<path d="M189.194 188.153V192.091C189.194 193.334 188.322 193.838 187.244 193.216L169.213 182.807C168.645 182.436 168.172 181.936 167.833 181.348C167.495 180.76 167.299 180.101 167.263 179.423V175.481C167.263 174.242 168.139 173.739 169.213 174.356L187.244 184.769C187.813 185.14 188.286 185.639 188.625 186.227C188.964 186.815 189.159 187.475 189.194 188.153Z" fill="#F0F0F0"/>
<path d="M146.386 164.903V168.845C146.386 170.088 145.51 170.592 144.436 169.97L126.405 159.574C125.836 159.204 125.363 158.704 125.024 158.116C124.685 157.528 124.491 156.868 124.456 156.19V152.248C124.456 151.005 125.327 150.501 126.405 151.123L144.436 161.536C145.002 161.905 145.474 162.402 145.813 162.987C146.151 163.572 146.348 164.228 146.386 164.903Z" fill="#F0F0F0"/>
<path d="M192.674 146.272L200 150.501V158.939L192.674 154.71C192.106 154.339 191.634 153.839 191.295 153.251C190.956 152.663 190.761 152.004 190.725 151.326V147.384C190.725 146.158 191.6 145.654 192.674 146.272Z" fill="#F0F0F0"/>
<path d="M145.751 140.156L163.782 150.569C164.351 150.939 164.824 151.439 165.163 152.027C165.502 152.615 165.697 153.275 165.732 153.953V157.882C165.732 159.125 164.861 159.629 163.782 159.007L145.751 148.598C145.184 148.227 144.712 147.727 144.373 147.139C144.035 146.551 143.841 145.892 143.806 145.214V141.272C143.806 140.042 144.677 139.534 145.751 140.156Z" fill="#E0E0E0"/>
<path d="M24.9675 134.793V138.735C24.9675 139.978 24.0962 140.481 23.0177 139.86L4.98695 129.451C4.41874 129.08 3.94604 128.58 3.60724 127.992C3.26845 127.404 3.07311 126.745 3.03711 126.067V122.125C3.03711 120.882 3.91263 120.378 4.98695 121L23.0219 131.422C23.5888 131.791 24.0606 132.288 24.3987 132.874C24.7368 133.46 24.9317 134.117 24.9675 134.793Z" fill="#E0E0E0"/>
<path d="M11.6313 155.991L0 149.275V157.734L11.6313 164.446C12.7057 165.068 13.577 164.565 13.577 163.321V159.362C13.5401 158.687 13.3448 158.03 13.0068 157.444C12.6688 156.859 12.1976 156.361 11.6313 155.991Z" fill="#F0F0F0"/>
<path d="M181.284 150.116L199.315 160.525C199.567 160.675 199.798 160.858 200 161.071V169.209C199.758 169.173 199.526 169.091 199.315 168.968L181.284 158.554C180.716 158.184 180.243 157.684 179.905 157.096C179.566 156.508 179.37 155.848 179.334 155.171V151.241C179.334 149.998 180.21 149.495 181.284 150.116Z" fill="#F0F0F0"/>
<path d="M88.9733 169.501L107.004 179.91C107.573 180.28 108.046 180.779 108.385 181.367C108.724 181.955 108.919 182.615 108.954 183.293V187.235C108.954 188.474 108.083 188.978 107.004 188.36L88.9733 177.947C88.4051 177.576 87.9324 177.076 87.5936 176.488C87.2548 175.901 87.0594 175.241 87.0234 174.563V170.621C87.0234 169.382 87.899 168.879 88.9733 169.501Z" fill="#F0F0F0"/>
<path d="M101.29 164.683L119.325 175.096C119.892 175.467 120.365 175.967 120.703 176.555C121.041 177.143 121.235 177.803 121.27 178.48V182.413C121.27 183.653 120.399 184.156 119.325 183.534L101.29 173.108C100.722 172.737 100.25 172.237 99.9121 171.649C99.574 171.061 99.3794 170.402 99.3442 169.725V165.783C99.3442 164.569 100.216 164.066 101.29 164.683Z" fill="#E0E0E0"/>
<path d="M63.9811 155.069L82.0118 165.495C82.5807 165.865 83.054 166.365 83.3928 166.953C83.7317 167.541 83.9266 168.201 83.9616 168.879V172.821C83.9616 174.064 83.0903 174.568 82.0118 173.946L63.9811 163.507C63.4117 163.138 62.9381 162.638 62.5991 162.05C62.2602 161.462 62.0656 160.802 62.0312 160.124V156.19C62.0312 154.951 62.9025 154.448 63.9811 155.069Z" fill="#F0F0F0"/>
<path d="M63.9811 137.258L82.0118 147.667C82.5807 148.038 83.054 148.537 83.3928 149.125C83.7317 149.713 83.9266 150.373 83.9616 151.051V154.993C83.9616 156.237 83.0903 156.74 82.0118 156.118L63.9811 145.701C63.4122 145.331 62.9389 144.831 62.6 144.243C62.2612 143.655 62.0662 142.995 62.0312 142.317V138.383C62.0312 137.157 62.9025 136.637 63.9811 137.258Z" fill="#F0F0F0"/>
<path d="M165.732 80.0957V84.0377C165.732 85.2812 164.861 85.7845 163.786 85.1627L145.751 74.7495C145.183 74.3789 144.711 73.8791 144.373 73.2911C144.034 72.703 143.84 72.0433 143.806 71.3658V67.4239C143.806 66.1804 144.677 65.6771 145.751 66.2988L163.782 76.7078C164.351 77.0784 164.825 77.5786 165.164 78.1675C165.503 78.7563 165.697 79.4171 165.732 80.0957Z" fill="#F0F0F0"/>
<path d="M165.288 136.087V138.071L163.566 137.081V164.725C163.601 165.361 163.785 165.979 164.103 166.53C164.421 167.081 164.865 167.55 165.398 167.898L168.608 169.75C168.797 169.889 169.021 169.973 169.254 169.992C169.488 170.012 169.723 169.966 169.932 169.86C170.224 169.674 171.294 169.061 171.598 168.896C171.792 168.767 171.947 168.587 172.046 168.376C172.144 168.165 172.182 167.93 172.157 167.699V140.058L165.288 136.087Z" fill="#37474F"/>
<path d="M170.44 168.693C170.44 169.86 169.619 170.334 168.608 169.75L165.402 167.898C164.869 167.551 164.425 167.082 164.106 166.531C163.788 165.98 163.605 165.361 163.571 164.725V137.081L170.44 141.048V168.693Z" fill="#263238"/>
<path d="M167.005 160.885C167.503 161.21 167.917 161.647 168.215 162.161C168.514 162.676 168.687 163.252 168.723 163.846C168.723 164.941 167.953 165.385 167.005 164.835C166.508 164.51 166.093 164.073 165.795 163.559C165.497 163.045 165.323 162.468 165.288 161.875C165.288 160.783 166.058 160.339 167.005 160.885Z" fill="#37474F"/>
<path opacity="0.1" d="M175.596 144.026V165.846L172.161 163.863L170.44 164.683L163.571 160.716V158.906L48.4585 92.4376V68.6335L175.596 144.026Z" fill="black"/>
<path d="M48.4584 64.6747L175.595 138.079L129.205 164.861L2.06836 91.4564L48.4584 64.6747Z" fill="#455A64"/>
<path d="M48.4584 64.6747L175.595 138.079L129.205 164.861L2.06836 91.4564L48.4584 64.6747Z" fill="#455A64"/>
<path d="M2.06836 91.4564V97.4032L129.205 170.808V164.861L2.06836 91.4564Z" fill="#37474F"/>
<path d="M175.595 138.079L129.205 164.861V170.808L175.595 144.026V138.079Z" fill="#263238"/>
<path d="M108.59 150.975L151.542 126.177L84.5369 87.489L41.5854 112.287L108.59 150.975Z" fill="#37474F"/>
<path d="M57.9878 107.706L82.8196 93.3681L44.0809 71.0021L19.249 85.3404L57.9878 107.706Z" fill="#37474F"/>
<path d="M149.825 140.063C154.57 142.803 154.57 147.253 149.825 149.981C145.079 152.709 137.385 152.722 132.644 149.981C127.903 147.24 127.898 142.791 132.644 140.063C137.39 137.335 145.079 137.322 149.825 140.063Z" fill="#37474F"/>
<path d="M57.2009 100.761L55.581 101.544L25.5171 84.1857L27.1412 83.4032L57.2009 100.761Z" fill="#BA68C8"/>
<path opacity="0.2" d="M57.2009 100.761L55.581 101.544L25.5171 84.1857L27.1412 83.4032L57.2009 100.761Z" fill="black"/>
<path d="M27.1411 83.4032L55.7373 99.9113L60.5802 49.8922L31.9798 33.3969L27.1411 83.4032Z" fill="#FAFAFA"/>
<path d="M30.5166 82.3923L34.8181 37.9901L57.201 50.903L52.9038 95.3179L30.5166 82.3923Z" fill="#E0E0E0"/>
<path d="M48.268 55.378C48.8471 55.7384 49.3215 56.2445 49.6436 56.8457C49.9657 57.4469 50.1244 58.1222 50.1036 58.804C49.981 60.0433 48.9659 60.517 47.8323 59.8656C47.2541 59.5033 46.7805 58.9962 46.4585 58.3946C46.1365 57.7929 45.9773 57.1175 45.9967 56.4354C46.1194 55.1962 47.1302 54.7224 48.268 55.378Z" fill="#FAFAFA"/>
<path d="M22.459 85.611L58.0509 106.163L63.6255 48.4669L28.0463 27.9196L22.459 85.611ZM30.4952 32.534L60.5591 49.8753L55.5893 101.544L25.5254 84.2026L30.4952 32.534Z" fill="#BA68C8"/>
<path d="M22.459 85.611L58.0509 106.163L63.6255 48.4669L28.0463 27.9196L22.459 85.611ZM30.4952 32.534L60.5591 49.8753L55.5893 101.544L25.5254 84.2026L30.4952 32.534Z" fill="#BA68C8"/>
<path d="M25.5171 84.1857L27.1412 83.4032L31.9799 33.3969L30.5165 32.5341L25.5171 84.1857Z" fill="#BA68C8"/>
<path opacity="0.35" d="M25.5171 84.1857L27.1412 83.4032L31.9799 33.3969L30.5165 32.5341L25.5171 84.1857Z" fill="black"/>
<path d="M28.0464 27.9195L29.6917 27.1582L65.2836 47.7055L63.6383 48.4668L28.0464 27.9195Z" fill="#BA68C8"/>
<path opacity="0.2" d="M28.0464 27.9195L29.6917 27.1582L65.2836 47.7055L63.6383 48.4668L28.0464 27.9195Z" fill="white"/>
<path d="M65.2834 47.7056L63.6381 48.4669L58.0508 106.163L59.6961 105.401L65.2834 47.7056Z" fill="#BA68C8"/>
<path opacity="0.35" d="M65.2834 47.7056L63.6381 48.4669L58.0508 106.163L59.6961 105.401L65.2834 47.7056Z" fill="black"/>
<path d="M34.6995 63.0928L41.7036 54.5913L46.4196 74.5169L46.5465 70.448L49.6764 65.9985L52.3833 76.7501L50.9537 91.5325L32.9526 81.1404L34.6995 63.0928Z" fill="#FAFAFA"/>
<path d="M147.446 124.177L107.625 146.889L50.9824 114.385L90.7997 95.5254L147.446 124.177Z" fill="#BA68C8"/>
<path d="M107.232 145.405L145.844 123.254C144.977 120.806 145.044 121.804 146.021 118.538L107.612 140.486C107.612 140.486 106.995 138.697 107.232 145.405Z" fill="#F5F5F5"/>
<path d="M109.304 137.804C108.38 138.401 107.61 139.208 107.058 140.159C106.505 141.111 106.185 142.179 106.124 143.277V145.815C106.124 147.828 107.549 148.645 109.304 147.638L147.434 125.763V124.181L109.736 145.688C108.682 146.293 107.832 145.802 107.832 144.593L107.862 142.529C107.898 141.87 108.09 141.229 108.422 140.659C108.753 140.088 109.215 139.604 109.769 139.246L147.413 117.731V115.937L109.304 137.804Z" fill="#BA68C8"/>
<path opacity="0.3" d="M109.304 137.804C108.38 138.401 107.61 139.208 107.058 140.159C106.505 141.111 106.185 142.179 106.124 143.277V145.815C106.124 147.828 107.549 148.645 109.304 147.638L147.434 125.763V124.181L109.736 145.688C108.682 146.293 107.832 145.802 107.832 144.593L107.862 142.529C107.898 141.87 108.09 141.229 108.422 140.659C108.753 140.088 109.215 139.604 109.769 139.246L147.413 117.731V115.937L109.304 137.804Z" fill="white"/>
<path d="M147.442 115.933L90.7998 83.4414L52.6701 105.3C51.7473 105.898 50.9787 106.705 50.4268 107.656C49.8748 108.607 49.5551 109.675 49.4937 110.773V113.311C49.4937 114.313 49.8447 115.003 50.4242 115.354L107.067 147.858C106.487 147.528 106.136 146.822 106.136 145.819V143.282C106.195 142.183 106.513 141.115 107.063 140.163C107.614 139.211 108.382 138.403 109.304 137.804L147.442 115.933Z" fill="#BA68C8"/>
<path opacity="0.7" d="M147.442 115.933L90.7998 83.4414L52.6701 105.3C51.7473 105.898 50.9787 106.705 50.4268 107.656C49.8748 108.607 49.5551 109.675 49.4937 110.773V113.311C49.4937 114.313 49.8447 115.003 50.4242 115.354L107.067 147.858C106.487 147.528 106.136 146.822 106.136 145.819V143.282C106.195 142.183 106.513 141.115 107.063 140.163C107.614 139.211 108.382 138.403 109.304 137.804L147.442 115.933Z" fill="white"/>
<path d="M107.062 140.16C106.49 141.101 106.168 142.173 106.128 143.273V145.811C106.128 146.813 106.479 147.503 107.058 147.849L50.4242 115.349C49.8447 115.015 49.4937 114.309 49.4937 113.306V110.769C49.532 109.668 49.8524 108.597 50.4242 107.656L107.062 140.16Z" fill="#BA68C8"/>
<path d="M107.062 140.16C106.49 141.101 106.168 142.173 106.128 143.273V145.811C106.128 146.813 106.479 147.503 107.058 147.849L50.4242 115.349C49.8447 115.015 49.4937 114.309 49.4937 113.306V110.769C49.532 109.668 49.8524 108.597 50.4242 107.656L107.062 140.16Z" fill="#BA68C8"/>
<path opacity="0.4" d="M107.062 140.16C106.49 141.101 106.168 142.173 106.128 143.273V145.811C106.128 146.813 106.479 147.503 107.058 147.849L50.4242 115.349C49.8447 115.015 49.4937 114.309 49.4937 113.306V110.769C49.532 109.668 49.8524 108.597 50.4242 107.656L107.062 140.16Z" fill="white"/>
<path d="M151.08 114.952L111.259 137.669L54.6162 105.164L94.4377 85.903L151.08 114.952Z" fill="#BA68C8"/>
<path opacity="0.5" d="M151.08 114.952L111.259 137.669L54.6162 105.164L94.4377 85.903L151.08 114.952Z" fill="black"/>
<path d="M110.869 136.184L149.485 114.034C148.64 111.581 148.686 112.177 149.667 108.912L111.267 130.859C111.267 130.859 110.633 129.476 110.869 136.184Z" fill="#F5F5F5"/>
<path d="M112.946 128.182C112.023 128.778 111.254 129.585 110.702 130.535C110.15 131.486 109.831 132.553 109.77 133.651V136.586C109.77 138.604 111.191 139.42 112.946 138.413L151.076 116.538V114.956L113.382 136.463C112.329 137.064 111.475 136.578 111.479 135.368L111.508 132.902C111.545 132.243 111.737 131.601 112.068 131.03C112.4 130.459 112.862 129.975 113.416 129.616L151.059 108.1V106.307L112.946 128.182Z" fill="#BA68C8"/>
<path opacity="0.3" d="M112.946 128.182C112.023 128.778 111.254 129.585 110.702 130.535C110.15 131.486 109.831 132.553 109.77 133.651V136.586C109.77 138.604 111.191 139.42 112.946 138.413L151.076 116.538V114.956L113.382 136.463C112.329 137.064 111.475 136.578 111.479 135.368L111.508 132.902C111.545 132.243 111.737 131.601 112.068 131.03C112.4 130.459 112.862 129.975 113.416 129.616L151.059 108.1V106.307L112.946 128.182Z" fill="black"/>
<path d="M151.076 106.311L94.4374 73.8021L56.3078 95.6775C55.3846 96.2741 54.6156 97.0805 54.0636 98.031C53.5116 98.9814 53.1921 100.049 53.1313 101.146V104.086C53.1313 105.088 53.4866 105.778 54.0661 106.129L110.709 138.633C110.129 138.303 109.778 137.593 109.774 136.59V133.63C109.835 132.532 110.155 131.464 110.707 130.513C111.259 129.562 112.028 128.754 112.95 128.156L151.076 106.311Z" fill="#BA68C8"/>
<path opacity="0.1" d="M151.076 106.311L94.4374 73.8021L56.3078 95.6775C55.3846 96.2741 54.6156 97.0805 54.0636 98.031C53.5116 98.9814 53.1921 100.049 53.1313 101.146V104.086C53.1313 105.088 53.4866 105.778 54.0661 106.129L110.709 138.633C110.129 138.303 109.778 137.593 109.774 136.59V133.63C109.835 132.532 110.155 131.464 110.707 130.513C111.259 129.562 112.028 128.754 112.95 128.156L151.076 106.311Z" fill="black"/>
<path d="M110.696 130.538C110.125 131.479 109.804 132.551 109.766 133.651V136.611C109.766 137.614 110.121 138.303 110.701 138.654L54.0622 106.129C53.4827 105.795 53.1317 105.088 53.1274 104.086V101.146C53.1663 100.046 53.4867 98.9745 54.058 98.0334L110.696 130.538Z" fill="#BA68C8"/>
<path d="M110.696 130.538C110.125 131.479 109.804 132.551 109.766 133.651V136.611C109.766 137.614 110.121 138.303 110.701 138.654L54.0622 106.129C53.4827 105.795 53.1317 105.088 53.1274 104.086V101.146C53.1663 100.046 53.4867 98.9745 54.058 98.0334L110.696 130.538Z" fill="#BA68C8"/>
<path opacity="0.25" d="M110.696 130.538C110.125 131.479 109.804 132.551 109.766 133.651V136.611C109.766 137.614 110.121 138.303 110.701 138.654L54.0622 106.129C53.4827 105.795 53.1317 105.088 53.1274 104.086V101.146C53.1663 100.046 53.4867 98.9745 54.058 98.0334L110.696 130.538Z" fill="black"/>
<path d="M63.668 73.4382C58.9054 73.9838 54.7266 76.1832 50.9792 79.0593C50.1841 79.6684 49.4016 80.2901 48.6614 80.9626C40.659 88.2164 38.6204 100.541 44.1146 109.851C46.3478 113.632 49.4862 116.808 52.9164 119.545C55.4541 121.571 58.0511 122.95 59.9121 125.648C61.6039 128.076 61.1175 130.681 60.1997 132.466C62.093 131.885 63.8431 130.913 65.3367 129.612C66.8304 128.312 68.0342 126.712 68.8703 124.916C70.8329 120.636 70.3422 115.713 68.0836 111.665C65.2794 106.645 60.758 102.783 58.2499 97.661C55.9363 92.9873 55.9701 87.2478 58.9731 82.8913C60.2065 81.1502 61.8298 79.7214 63.7134 78.719C65.597 77.7166 67.6889 77.1683 69.822 77.118C70.3159 77.1638 70.8125 77.0654 71.2516 76.8346C71.9749 76.3397 71.8903 75.1427 71.2939 74.521C70.6975 73.8992 69.7839 73.6751 68.9169 73.5186C67.1788 73.256 65.4133 73.229 63.668 73.4382Z" fill="#37474F"/>
<path d="M68.8534 124.917C70.8159 120.636 70.3253 115.713 68.0667 111.665C67.6691 110.95 67.2207 110.261 66.7724 109.584C67.2246 110.946 67.421 112.38 67.3519 113.814C67.3984 112.905 63.4141 108.954 63.0335 109.652C62.9725 109.803 62.9621 109.969 63.0038 110.126C63.3041 111.936 63.9597 113.564 63.8963 115.417C61.625 113.818 59.8232 111.56 57.3658 110.27C57.2051 110.189 56.9852 110.117 56.8667 110.27C56.8107 110.348 56.7852 110.444 56.7948 110.54C56.826 111.107 56.9474 111.665 57.1543 112.194C57.794 114.075 58.5905 115.899 59.5356 117.646C57.9528 116.609 56.4614 115.439 55.0776 114.148C54.4601 113.569 53.7538 112.93 52.9121 112.976C52.7329 114.537 53.1615 116.106 54.109 117.358C50.7028 115.53 47.5266 113.302 44.6475 110.722C46.8299 114.106 49.723 117.024 52.8994 119.549C55.4371 121.575 58.0341 122.954 59.8951 125.653C61.5869 128.08 61.1005 130.686 60.1827 132.471C62.0764 131.889 63.8268 130.916 65.3204 129.615C66.8141 128.313 68.0177 126.713 68.8534 124.917Z" fill="#F5F5F5"/>
<path d="M131.045 107.618C137.389 112.799 140.308 110.05 144.389 106.133C148.471 102.216 154.963 95.3433 156.439 95.0938C157.915 94.8442 162.873 94.895 162.39 92.1119C161.967 89.6291 158.757 88.2757 154.934 88.9947C151.11 89.7137 149.566 90.898 147.642 91.8074C146.018 92.5772 144.152 93.3596 142.164 94.4932C140.849 95.2418 138.781 91.6509 137.292 90.1113L131.045 107.618Z" fill="#37474F"/>
<path d="M160.06 90.695C160.018 90.6485 160.005 90.4751 160.107 90.5004C161.122 90.7415 161.862 91.672 162.222 92.6152C162.273 92.7533 162.315 92.8946 162.348 93.0382C162.218 93.4078 161.97 93.7243 161.642 93.9391C161.637 93.7063 161.613 93.4743 161.57 93.2454C161.371 92.205 160.729 91.4225 160.06 90.695Z" fill="#263238"/>
<path d="M159.214 93.1693C159.112 92.8255 158.97 92.4948 158.791 92.1838C158.547 91.7673 158.196 91.423 157.776 91.1856C157.679 91.1306 157.708 90.8769 157.844 90.9192C158.555 91.1439 159.177 91.5881 159.62 92.188C160.086 92.8788 160.335 93.6935 160.335 94.527C160.035 94.6116 159.722 94.6835 159.409 94.7427C159.424 94.2114 159.358 93.6808 159.214 93.1693Z" fill="#263238"/>
<path d="M138.912 85.4122C137.423 86.4061 137.072 87.9838 137.694 89.6418C138.003 90.3746 138.369 91.0817 138.789 91.7566C139.847 93.5964 140.731 95.7028 140.354 97.7922C140.049 96.8228 139.443 95.9756 138.625 95.3729C139.169 96.4244 139.338 97.6305 139.104 98.7913C138.869 99.9521 138.245 100.998 137.334 101.755C137.199 100.784 136.914 99.8392 136.489 98.9553C136.583 100.08 136.356 101.208 135.833 102.208C135.385 103.134 134.691 103.879 134.188 104.746C133.845 105.35 133.545 105.955 133.139 106.539C132.247 107.801 131.233 108.971 130.11 110.033C128.732 111.344 126.401 113.234 124.705 114.085C118.669 117.104 104.031 116.161 96.3668 107.943C88.7027 99.7251 83.9275 100.199 77.1602 97.6315C70.3929 95.0641 58.0933 93.9475 58.0933 81.8551C58.0933 69.8389 64.518 63.9894 68.1512 63.4987C71.463 55.7713 81.3052 52.9544 89.6036 53.9652C96.0749 54.752 101.827 58.3006 106.353 63.9894C110.878 69.6781 118.644 71.6026 118.644 71.6026L138.912 85.4122Z" fill="#455A64"/>
<path d="M137.487 101.303C137.114 101.561 136.996 100.846 136.641 100.381C136.966 103.473 135.824 105.799 133.469 107.799C133.595 107.245 133.648 106.676 133.625 106.108C133.566 106.894 132.711 108.104 132.305 108.59C130.198 110.966 127.589 112.845 124.667 114.089C126.084 112.672 126.608 110.473 125.936 108.772C125.634 109.336 125.337 109.914 125.043 110.506C124.136 109.488 123.638 108.17 123.643 106.805C123.643 105.403 123.806 104.004 124.13 102.639C123.774 103.439 123.208 105.938 122.197 104.712C121.351 103.684 121.275 102.056 121.351 100.732C121.588 96.9252 123.292 93.4485 126.663 91.469C129.396 89.866 134.522 88.9101 136.814 91.8032C137.745 93.1243 138.327 94.6592 138.506 96.2654C138.705 97.9784 138.565 100.237 137.487 101.303Z" fill="#EBEBEB"/>
<path d="M111.589 67.2081C109.475 63.4607 110.037 54.697 113.205 52.9206C116.195 51.2287 123.077 60.0601 123.077 60.0601C123.077 60.0601 117.418 66.303 111.589 67.2081Z" fill="#37474F"/>
<path d="M115.201 64.958C119.185 62.6402 123.077 60.0601 123.077 60.0601C123.077 60.0601 116.512 51.6813 114.055 53.0813C112.507 53.7412 110.934 58.6559 115.201 64.958Z" fill="#FFA8A7"/>
<path d="M120.814 60.1785C120.14 59.8513 119.576 59.3356 119.19 58.694C118.681 57.9817 118.416 57.1244 118.433 56.2493C116.957 57.2601 116.339 59.7006 116.339 59.7006C114.186 59.3538 114.322 57.1967 114.322 57.1967C113.226 58.381 113.264 61.3671 115.167 62.9151C116.189 63.0465 117.226 62.8729 118.149 62.416C119.82 61.6589 120.7 60.7876 120.814 60.1785Z" fill="#F28F8F"/>
<path d="M116.297 63.4988C114.88 62.5133 113.992 60.4239 114.605 58.9816C114.605 58.9816 115.586 60.2124 116.72 60.2505C116.72 60.2505 117.278 56.1731 119.537 55.5514C119.537 55.5514 119.046 58.2372 121.046 59.7006C121.656 63.4988 116.297 63.4988 116.297 63.4988Z" fill="#455A64"/>
<path d="M128.528 58.2329C130.508 54.938 136.209 51.6982 139.656 54.1006C141.598 55.4583 137.816 65.0975 137.816 65.0975C137.816 65.0975 131.358 62.4836 128.528 58.2329Z" fill="#37474F"/>
<path d="M131.299 60.923C134.479 63.1012 137.825 65.0933 137.825 65.0933C137.825 65.0933 141.606 55.4583 139.665 54.0964C138.328 53.4789 134.361 54.8408 131.299 60.923Z" fill="#FFA8A7"/>
<path d="M137.424 62.9616C137.631 62.5507 137.904 62.1764 138.231 61.8535C138.443 61.2444 138.68 60.5338 138.904 59.781C137.935 59.3071 136.873 59.0543 135.795 59.0408C135.723 57.9792 136.679 56.926 136.679 56.926C135.41 56.558 133.295 57.8057 132.834 59.9713C133.15 60.7951 133.627 61.5474 134.239 62.1834C134.941 62.5598 135.579 62.8728 136.108 63.1223C136.553 63.1654 137.002 63.1105 137.424 62.9616Z" fill="#F28F8F"/>
<path d="M133.384 60.7073C133.807 59.21 135.237 57.8354 136.518 57.92C136.518 57.92 135.791 59.1169 136.036 60.1024C136.036 60.1024 139.386 59.3749 140.435 61.1175C140.435 61.1175 138.202 61.4897 137.542 63.6299C134.712 65.2794 133.384 60.7073 133.384 60.7073Z" fill="#455A64"/>
<path d="M127.201 57.9918C130.902 58.4105 134.38 59.9717 137.153 62.4583C139.726 64.7494 141.873 67.4771 143.497 70.5156C144.242 71.8691 145.049 73.231 145.43 74.7452C145.885 76.5193 145.847 78.3838 145.32 80.1379C145.14 79.4035 144.839 78.7044 144.428 78.0696C144.588 79.034 144.242 80.2563 143.836 81.1488C143.802 80.6878 143.673 80.2387 143.459 79.8292C143.269 80.1807 143.054 80.5185 142.816 80.84C142.537 81.263 142.245 81.6563 141.937 82.0497C141.294 82.8617 140.587 83.6199 139.822 84.3167C138.332 85.7425 136.532 86.8049 134.564 87.4213C134.158 87.5389 133.744 87.6294 133.325 87.6919C129.38 88.2359 125.363 87.8875 121.571 86.6726C119.769 86.1156 118.025 85.3891 116.36 84.5028C115.667 84.1349 113.29 82.4388 113.197 81.2799C112.96 81.3866 112.756 81.5554 112.607 81.7683C112.458 81.9812 112.37 82.2304 112.351 82.4896C111.556 81.8385 110.982 80.9582 110.707 79.9689C110.431 78.9796 110.468 77.9294 110.811 76.9615C109.94 77.4831 109.244 78.2516 108.81 79.1693C107.905 78.0654 107.757 76.5258 107.863 75.1005C108.036 72.6854 109.225 70.6806 110.502 68.6884C114.068 63.0715 120.34 58.2879 127.201 57.9918Z" fill="#455A64"/>
<path d="M143.45 79.8208C143.084 80.4624 142.678 81.0798 142.232 81.6691C141.805 82.2727 141.339 82.8477 140.836 83.3905C139.844 84.4906 138.705 85.4497 137.453 86.2413C136.815 86.6371 136.143 86.974 135.444 87.2479C134.743 87.506 134.022 87.7013 133.287 87.8316C131.818 88.0563 130.331 88.1441 128.846 88.0938C125.875 87.9858 122.94 87.415 120.145 86.402C118.743 85.9038 117.384 85.2927 116.081 84.5748C115.445 84.1784 114.848 83.7239 114.296 83.2171C114.014 82.9652 113.755 82.6892 113.522 82.3924C113.26 82.0864 113.086 81.7151 113.019 81.318L113.234 81.4534C113.02 81.5441 112.835 81.6919 112.7 81.8806C112.564 82.0693 112.482 82.2917 112.464 82.5235V82.8195L112.236 82.6377C111.417 81.9672 110.826 81.0591 110.545 80.0387C110.264 79.0182 110.307 77.9357 110.667 76.9404L110.857 77.1011C110.004 77.5934 109.317 78.328 108.882 79.2117L108.806 79.3724L108.696 79.2329C108.113 78.4579 107.78 77.5242 107.74 76.5555C107.671 75.6074 107.75 74.6543 107.973 73.7302C108.429 71.8776 109.44 70.245 110.472 68.6801C109.478 70.2704 108.51 71.9241 108.104 73.7556C107.905 74.669 107.845 75.6073 107.926 76.5386C107.979 77.46 108.308 78.3442 108.869 79.0764H108.679C109.118 78.1338 109.826 77.3421 110.713 76.8008L111.035 76.6105L110.904 76.9616C110.577 77.9027 110.547 78.9213 110.817 79.8802C111.087 80.8392 111.644 81.6923 112.414 82.3247L112.168 82.4346C112.189 82.1449 112.289 81.8664 112.456 81.6293C112.624 81.3922 112.854 81.2056 113.12 81.0896L113.315 81.0093L113.34 81.2208C113.4 81.5528 113.546 81.8634 113.763 82.1217C113.989 82.404 114.238 82.6672 114.507 82.9084C115.045 83.3975 115.627 83.8351 116.246 84.2153C117.536 84.9115 118.874 85.5137 120.251 86.0171C123.01 87.0355 125.911 87.6164 128.85 87.7385C130.317 87.7957 131.786 87.7235 133.24 87.5228C133.959 87.4055 134.667 87.2258 135.355 86.9857C136.04 86.7282 136.7 86.4082 137.326 86.0298C138.581 85.2623 139.731 84.3354 140.748 83.2721C141.263 82.7419 141.74 82.1766 142.177 81.5803C142.639 81.022 143.065 80.4342 143.45 79.8208Z" fill="#263238"/>
<path d="M127.864 76.2171C132.022 73.8232 129.848 63.4988 129.848 63.4988C132.018 68.0075 132.83 73.3664 137.123 75.1301C140.858 76.6655 142.858 77.9217 141.945 82.0159C140.008 84.8497 136.996 87.5143 133.435 87.9796C130.36 88.3729 126.549 88.1868 121.994 86.8038C120.052 81.3265 122.607 79.2413 127.864 76.2171Z" fill="#FAFAFA"/>
<path d="M123.098 72.2962C123.045 72.6452 123.097 73.0019 123.247 73.3214C123.397 73.6409 123.638 73.9088 123.94 74.0912C124.242 74.2737 124.591 74.3625 124.944 74.3464C125.296 74.3303 125.636 74.2101 125.921 74.0009C126.205 73.7917 126.421 73.503 126.541 73.1711C126.661 72.8393 126.68 72.4793 126.596 72.1367C126.511 71.794 126.327 71.484 126.067 71.2459C125.806 71.0078 125.481 70.8523 125.132 70.799C124.664 70.7285 124.187 70.8466 123.806 71.1272C123.424 71.4079 123.17 71.8283 123.098 72.2962Z" fill="white"/>
<path d="M122.789 72.1525C122.736 72.5015 122.788 72.8582 122.938 73.1777C123.088 73.4972 123.329 73.7651 123.631 73.9475C123.933 74.13 124.283 74.2188 124.635 74.2027C124.988 74.1866 125.328 74.0664 125.612 73.8572C125.896 73.648 126.112 73.3593 126.232 73.0274C126.352 72.6956 126.371 72.3356 126.287 71.9929C126.203 71.6503 126.019 71.3403 125.758 71.1022C125.498 70.8641 125.172 70.7086 124.824 70.6553C124.592 70.6198 124.355 70.6304 124.127 70.6865C123.899 70.7426 123.685 70.8431 123.496 70.9821C123.307 71.1212 123.147 71.2961 123.026 71.497C122.905 71.6978 122.824 71.9206 122.789 72.1525Z" fill="#263238"/>
<path d="M124.553 71.9325C124.553 72.0388 124.521 72.1426 124.462 72.231C124.403 72.3193 124.319 72.3882 124.221 72.4288C124.123 72.4695 124.015 72.4801 123.911 72.4594C123.807 72.4387 123.711 72.3875 123.636 72.3124C123.561 72.2372 123.51 72.1415 123.489 72.0373C123.468 71.9331 123.479 71.8251 123.519 71.727C123.56 71.6288 123.629 71.5449 123.717 71.4859C123.806 71.4269 123.909 71.3954 124.016 71.3954C124.158 71.3954 124.295 71.452 124.396 71.5527C124.496 71.6534 124.553 71.7901 124.553 71.9325Z" fill="#FAFAFA"/>
<path d="M135.529 71.2135C135.479 71.5359 135.526 71.8658 135.664 72.1615C135.801 72.4572 136.024 72.7054 136.303 72.8748C136.581 73.0441 136.904 73.1269 137.23 73.1128C137.556 73.0987 137.87 72.9883 138.134 72.7955C138.397 72.6027 138.597 72.3362 138.709 72.0297C138.82 71.7232 138.839 71.3905 138.761 71.0736C138.684 70.7567 138.514 70.4698 138.274 70.2493C138.033 70.0288 137.733 69.8845 137.411 69.8347C137.196 69.8004 136.978 69.809 136.767 69.8599C136.556 69.9108 136.357 70.0031 136.182 70.1313C136.007 70.2596 135.859 70.4212 135.747 70.607C135.635 70.7927 135.56 70.9989 135.529 71.2135Z" fill="white"/>
<path d="M135.245 71.0823C135.197 71.4039 135.245 71.7324 135.384 72.0265C135.522 72.3206 135.745 72.567 136.023 72.7348C136.302 72.9025 136.624 72.984 136.949 72.9689C137.273 72.9538 137.586 72.8429 137.848 72.6502C138.11 72.4574 138.309 72.1914 138.419 71.8857C138.53 71.5801 138.548 71.2485 138.47 70.9328C138.393 70.6171 138.223 70.3315 137.983 70.1119C137.744 69.8924 137.444 69.7488 137.123 69.6993C136.909 69.6662 136.69 69.6759 136.48 69.7276C136.269 69.7793 136.071 69.8721 135.897 70.0006C135.722 70.1291 135.575 70.2908 135.463 70.4765C135.351 70.6621 135.277 70.868 135.245 71.0823Z" fill="#263238"/>
<path d="M136.379 71.3742C136.652 71.3742 136.874 71.1527 136.874 70.8794C136.874 70.6061 136.652 70.3845 136.379 70.3845C136.105 70.3845 135.884 70.6061 135.884 70.8794C135.884 71.1527 136.105 71.3742 136.379 71.3742Z" fill="#FAFAFA"/>
<path d="M121.351 78.8479H121.376C121.443 78.8024 121.489 78.7327 121.505 78.6536C121.52 78.5746 121.505 78.4925 121.461 78.4249C120.585 76.9657 118.957 75.2908 116.148 75.625C116.07 75.6345 115.999 75.6746 115.951 75.7365C115.903 75.7984 115.881 75.8769 115.89 75.9549C115.9 76.0328 115.94 76.1038 116.002 76.1522C116.064 76.2006 116.142 76.2224 116.22 76.2129C118.737 75.9126 120.205 77.4183 120.991 78.7506C121.027 78.8098 121.085 78.8528 121.152 78.8709C121.218 78.889 121.29 78.8808 121.351 78.8479Z" fill="#263238"/>
<path d="M120.564 79.55C120.593 79.5351 120.619 79.515 120.64 79.4908C120.694 79.4335 120.724 79.3579 120.724 79.2793C120.724 79.2007 120.694 79.1251 120.64 79.0678C120.118 78.6091 119.503 78.2672 118.838 78.0652C118.173 77.8631 117.472 77.8055 116.783 77.8962C116.711 77.9159 116.649 77.9623 116.609 78.0259C116.57 78.0895 116.556 78.1656 116.571 78.2391C116.585 78.3125 116.627 78.3777 116.687 78.4216C116.748 78.4655 116.823 78.4848 116.897 78.4757C117.497 78.3996 118.107 78.4506 118.686 78.6255C119.266 78.8004 119.802 79.0952 120.26 79.4908C120.299 79.5301 120.348 79.5569 120.403 79.5674C120.457 79.578 120.513 79.5719 120.564 79.55Z" fill="#263238"/>
<path d="M120.674 80.7597C120.727 80.7284 120.768 80.681 120.792 80.6244C120.821 80.5532 120.822 80.474 120.796 80.402C120.769 80.3301 120.717 80.2707 120.649 80.2352C119.811 79.8805 118.9 79.7337 117.993 79.8073C117.087 79.881 116.211 80.1729 115.442 80.6582C115.407 80.6793 115.378 80.7071 115.354 80.7401C115.331 80.773 115.314 80.8104 115.305 80.8499C115.297 80.8894 115.296 80.9302 115.304 80.9699C115.311 81.0097 115.326 81.0475 115.349 81.0811C115.366 81.1133 115.39 81.1417 115.418 81.1647C115.446 81.1877 115.479 81.2048 115.514 81.2151C115.549 81.2253 115.586 81.2285 115.622 81.2243C115.658 81.2202 115.693 81.2089 115.725 81.1911C116.417 80.751 117.205 80.4849 118.022 80.4156C118.839 80.3464 119.66 80.4761 120.416 80.7935C120.458 80.8108 120.504 80.8168 120.549 80.8109C120.595 80.8049 120.638 80.7873 120.674 80.7597Z" fill="#263238"/>
<path d="M142.152 75.7772H142.127C142.056 75.7464 142 75.6897 141.97 75.6189C141.941 75.5481 141.939 75.4685 141.966 75.3965C142.533 73.7893 143.802 71.831 146.618 71.5899C146.656 71.5882 146.694 71.594 146.73 71.6069C146.765 71.6198 146.798 71.6395 146.826 71.6651C146.854 71.6906 146.876 71.7214 146.892 71.7557C146.908 71.7899 146.917 71.827 146.919 71.8648C146.923 71.9021 146.92 71.9398 146.909 71.9757C146.898 72.0117 146.881 72.0452 146.857 72.0743C146.834 72.1034 146.804 72.1275 146.771 72.1453C146.738 72.1631 146.702 72.1741 146.665 72.1778C144.127 72.3851 142.994 74.1488 142.482 75.5953C142.46 75.6619 142.414 75.7178 142.353 75.7516C142.292 75.7854 142.22 75.7946 142.152 75.7772Z" fill="#263238"/>
<path d="M143.061 76.3059C143.031 76.2979 143.002 76.2834 142.977 76.2636C142.912 76.2162 142.869 76.1456 142.855 76.0667C142.842 75.9877 142.86 75.9067 142.905 75.8406C143.327 75.2886 143.862 74.833 144.473 74.504C145.085 74.1751 145.76 73.9804 146.454 73.9331C146.525 73.9417 146.592 73.9764 146.64 74.0306C146.688 74.0848 146.714 74.1547 146.714 74.2271C146.714 74.2995 146.688 74.3694 146.64 74.4235C146.592 74.4777 146.525 74.5124 146.454 74.521C145.85 74.5661 145.263 74.7369 144.73 75.0225C144.197 75.308 143.729 75.702 143.358 76.179C143.329 76.2301 143.285 76.2703 143.231 76.2933C143.178 76.3163 143.118 76.3207 143.061 76.3059Z" fill="#263238"/>
<path d="M143.192 77.5198C143.135 77.5013 143.086 77.464 143.053 77.414C143.007 77.349 142.988 77.2686 143 77.1898C143.011 77.111 143.053 77.0398 143.116 76.9911C143.867 76.4783 144.731 76.1551 145.634 76.0491C146.537 75.943 147.453 76.0572 148.302 76.382C148.373 76.4104 148.431 76.4656 148.463 76.5359C148.494 76.6062 148.497 76.686 148.471 76.7585C148.461 76.7936 148.444 76.8264 148.421 76.8548C148.398 76.8832 148.369 76.9066 148.336 76.9236C148.304 76.9406 148.269 76.9508 148.232 76.9537C148.196 76.9566 148.159 76.952 148.124 76.9403C147.358 76.6458 146.533 76.5404 145.718 76.6332C144.903 76.7259 144.122 77.0141 143.442 77.4733C143.408 77.5026 143.367 77.5224 143.324 77.5306C143.28 77.5388 143.234 77.5351 143.192 77.5198Z" fill="#263238"/>
<path d="M129.966 82.5107C129.216 82.534 128.485 82.2761 127.915 81.7875C127.859 81.7247 127.829 81.6435 127.83 81.5595C127.83 81.4755 127.862 81.3948 127.919 81.3331C127.976 81.2714 128.054 81.233 128.138 81.2256C128.221 81.2181 128.305 81.242 128.372 81.2926C129.087 81.9567 130.419 82.0286 131.472 81.4618C131.986 81.1813 132.4 80.7482 132.656 80.2224C132.913 79.6966 133 79.104 132.906 78.5265C132.886 78.4232 132.873 78.3186 132.868 78.2135C132.867 78.1298 132.896 78.0486 132.951 77.9856C133.006 77.9226 133.083 77.8822 133.166 77.8722C133.249 77.8622 133.333 77.8833 133.401 77.9315C133.47 77.9797 133.518 78.0515 133.536 78.1331L133.574 78.4123C133.737 79.2008 134.199 79.8954 134.864 80.3494C135.168 80.528 135.512 80.6277 135.864 80.6395C136.217 80.6513 136.567 80.5749 136.882 80.4171C136.923 80.3935 136.969 80.3789 137.016 80.3742C137.064 80.3696 137.112 80.375 137.157 80.3901C137.202 80.4051 137.243 80.4296 137.278 80.4618C137.313 80.494 137.341 80.5332 137.36 80.5769C137.379 80.6206 137.389 80.6678 137.388 80.7154C137.387 80.763 137.377 80.8099 137.357 80.8531C137.337 80.8963 137.308 80.9348 137.272 80.9661C137.236 80.9974 137.194 81.0207 137.148 81.0346C136.735 81.2386 136.277 81.3354 135.817 81.3162C135.356 81.297 134.908 81.1624 134.513 80.9246C134.101 80.6663 133.751 80.3213 133.485 79.9138C133.372 80.3705 133.163 80.7978 132.871 81.1669C132.579 81.5361 132.212 81.8385 131.794 82.0539C131.231 82.3539 130.604 82.5107 129.966 82.5107Z" fill="#263238"/>
<path d="M133.266 79.0001C133.748 78.9663 134.907 77.8328 134.957 77.0503C135.008 76.2678 131.125 76.7923 131.121 77.4098C131.108 78.2811 132.788 79.034 133.266 79.0001Z" fill="#F28F8F"/>
<path d="M89.3458 78.5434C89.115 77.3445 88.6862 76.1924 88.0769 75.1344C87.4784 74.0672 86.737 73.0868 85.8733 72.2202C84.0002 70.3587 81.6935 68.9925 79.161 68.2444C77.8 67.8654 76.4015 67.6371 74.9906 67.5634C72.1224 67.3242 69.2389 67.7827 66.5864 68.9C63.611 70.168 61.1723 72.4361 59.6922 75.312C58.6491 77.5879 58.1095 80.0622 58.1103 82.5658C58.0004 86.8334 59.0366 91.414 62.2004 94.2775C66.2438 97.9741 71.5054 100.795 76.8262 103.037C82.1471 105.279 85.9791 105.245 87.4002 102.821C88.9609 98.9892 81.6099 95.5929 81.6099 95.5929C81.6099 95.5929 82.1724 95.3898 83.2171 94.2648C84.6474 92.9587 85.7736 91.3546 86.5162 89.5657C88.0219 86.9561 87.7513 83.6062 87.0068 80.6836C87.4051 80.9404 87.7293 81.2967 87.9474 81.7174C88.1655 82.138 88.2699 82.6083 88.2503 83.0818C88.435 81.8848 88.3401 80.6614 87.9732 79.5072C87.6063 78.353 86.9774 77.2993 86.1356 76.4286C87.3986 76.7846 88.5202 77.5235 89.3458 78.5434Z" fill="#455A64"/>
<path d="M84.8495 102.115C84.4046 101.517 83.7833 101.073 83.0731 100.846C82.9378 100.804 82.9082 101.053 83.0054 101.112C83.4268 101.349 83.7773 101.693 84.0205 102.111C84.1968 102.421 84.3386 102.75 84.4435 103.092C84.576 103.57 84.6401 104.064 84.6338 104.56C84.9471 104.506 85.2544 104.423 85.5516 104.31C85.5319 103.526 85.2883 102.765 84.8495 102.115Z" fill="#263238"/>
<path d="M87.3578 102.821C87.3578 102.775 87.3874 102.724 87.4085 102.677C87.4297 102.631 87.3451 102.466 87.307 102.36C86.939 101.43 86.2031 100.499 85.1922 100.245C85.0907 100.22 85.1034 100.393 85.1457 100.44C85.8266 101.167 86.4695 101.95 86.6599 102.957C86.6977 103.169 86.7203 103.384 86.7275 103.599C86.9759 103.374 87.1885 103.111 87.3578 102.821Z" fill="#263238"/>
<path d="M87.3579 102.821C87.5052 102.429 87.57 102.01 87.5481 101.592C87.5263 101.173 87.4183 100.764 87.231 100.389C86.8505 99.6432 86.3325 98.9759 85.7041 98.4224C85.0826 97.8623 84.4147 97.3557 83.7078 96.9082C83.0064 96.4533 82.2759 96.045 81.5211 95.6858L81.3138 95.5886L81.5295 95.4913C81.6786 95.4209 81.8203 95.3359 81.9525 95.2375C82.0878 95.136 82.2232 95.026 82.3501 94.9118C82.6084 94.6843 82.8528 94.4414 83.0818 94.1843C84.4865 92.886 85.5932 91.2987 86.3259 89.5318C87.0406 88.2104 87.406 86.7283 87.3875 85.2261C87.3799 83.7204 87.1781 82.2221 86.7869 80.7681L86.6812 80.3451L87.0407 80.5736C87.462 80.8456 87.8052 81.2227 88.0366 81.6676C88.268 82.1126 88.3796 82.6101 88.3603 83.1113L88.0262 83.0775C88.2092 81.9055 88.1189 80.707 87.7623 79.5757C87.4058 78.4443 86.7926 77.4107 85.9706 76.5554L85.5815 76.1579L86.1186 76.3017C87.4252 76.6596 88.5865 77.4185 89.4388 78.4714L89.1935 78.5856C88.9568 77.3527 88.5165 76.1678 87.8908 75.0793C87.268 73.9895 86.4949 72.9928 85.5942 72.1186C83.7799 70.343 81.5689 69.0251 79.144 68.2739C81.6 68.9715 83.8536 70.2462 85.7168 71.9917C86.6447 72.8701 87.4436 73.8754 88.0896 74.9778C88.7434 76.0818 89.2094 77.2867 89.4685 78.5433L89.5826 79.0974L89.2231 78.6745C88.4004 77.6765 87.2872 76.9595 86.0383 76.6231L86.1863 76.3693C87.0453 77.2537 87.6882 78.3247 88.0646 79.4986C88.441 80.6726 88.5407 81.9177 88.3561 83.1367L88.0219 83.0986C88.0387 82.6551 87.9404 82.2147 87.7366 81.8204C87.5328 81.4261 87.2304 81.0913 86.8588 80.8485L87.1126 80.6666C87.5066 82.1515 87.7056 83.6814 87.7047 85.2176C87.7188 86.771 87.3328 88.3019 86.5839 89.6629C85.8332 91.4712 84.6872 93.0884 83.2298 94.3958C82.9897 94.6535 82.7355 94.8978 82.4685 95.1275C82.3334 95.2448 82.1922 95.3549 82.0455 95.4574C81.8971 95.568 81.7368 95.6616 81.5676 95.7366V95.542C82.3253 95.9184 83.0585 96.3422 83.7627 96.8109C84.469 97.2758 85.1315 97.8038 85.7422 98.3885C86.367 98.9623 86.8766 99.6499 87.2437 100.415C87.424 100.787 87.5271 101.193 87.5467 101.606C87.5663 102.02 87.5021 102.433 87.3579 102.821Z" fill="#263238"/>
<path d="M107.795 85.979C112.067 85.7675 114.888 87.9584 116.551 90.8853C118.665 94.6073 119.245 99.8689 118.462 104.073C118.547 102.381 117.367 100.926 116.094 99.8435C117.653 102.854 117.957 106.359 116.94 109.593C116.675 108.189 115.912 106.929 114.791 106.044C115.637 107.567 115.603 109.352 115.561 111.043C115.523 112.528 115.214 114.22 116.335 115.273C117.883 116.745 119.765 117.549 121.47 118.767C123.656 120.34 124.853 121.782 125.378 124.866C125.459 125.974 125.298 127.086 124.908 128.127C124.621 128.702 124.173 129.181 123.619 129.507C123.065 129.833 122.429 129.991 121.787 129.962C120.967 129.89 120.198 129.534 119.613 128.956C119.05 128.322 118.526 127.656 118.044 126.959C116.424 125.001 113.78 124.333 111.56 123.309C109.2 122.222 106.878 120.928 104.995 119.113C104.252 118.36 103.587 117.532 103.012 116.643C101.971 115.114 101.015 113.528 100.148 111.894C99.3954 110.468 98.4226 108.933 97.9023 107.444" fill="#455A64"/>
<path d="M107.795 85.979C112.067 85.7675 114.888 87.9584 116.551 90.8853C118.665 94.6073 119.245 99.8689 118.462 104.073C118.547 102.381 117.367 100.926 116.094 99.8435C117.653 102.854 117.957 106.359 116.94 109.593C116.675 108.189 115.912 106.929 114.791 106.044C115.637 107.567 115.603 109.352 115.561 111.043C115.523 112.528 115.214 114.22 116.335 115.273C117.883 116.745 119.765 117.549 121.47 118.767C123.656 120.34 124.853 121.782 125.378 124.866C125.459 125.974 125.298 127.086 124.908 128.127C124.621 128.702 124.173 129.181 123.619 129.507C123.065 129.833 122.429 129.991 121.787 129.962C120.967 129.89 120.198 129.534 119.613 128.956C119.05 128.322 118.526 127.656 118.044 126.959C116.424 125.001 113.78 124.333 111.56 123.309C109.2 122.222 106.878 120.928 104.995 119.113C104.252 118.36 103.587 117.532 103.012 116.643C101.971 115.114 101.015 113.528 100.148 111.894C99.3954 110.468 98.4226 108.933 97.9023 107.444" fill="#455A64"/>
<path d="M123.838 125.665C123.749 125.61 123.707 125.775 123.736 125.834C124.159 126.739 124.506 127.687 124.362 128.702C124.362 128.791 124.329 128.884 124.307 128.977C124.556 128.735 124.757 128.448 124.9 128.131C124.966 127.962 125.024 127.79 125.073 127.615C125.006 127.224 124.863 126.851 124.651 126.516C124.439 126.182 124.163 125.892 123.838 125.665Z" fill="#263238"/>
<path d="M122.937 129.802C123.114 129.116 123.107 128.395 122.916 127.712C122.688 127.005 122.244 126.387 121.647 125.944C121.533 125.864 121.423 126.092 121.499 126.177C121.819 126.537 122.041 126.974 122.142 127.446C122.21 127.797 122.238 128.154 122.226 128.512C122.201 129.007 122.104 129.495 121.939 129.962C122.278 129.962 122.615 129.908 122.937 129.802Z" fill="#263238"/>
<path d="M107.795 85.979C108.804 85.9113 109.818 85.9968 110.802 86.2328C111.788 86.4759 112.725 86.8896 113.568 87.4552C115.237 88.6386 116.531 90.2752 117.299 92.1712C118.097 94.0381 118.603 96.0167 118.8 98.0376C119.016 100.059 118.949 102.1 118.602 104.103L118.318 104.069C118.333 103.254 118.094 102.454 117.633 101.781C117.178 101.092 116.623 100.475 115.988 99.9494L116.237 99.7506C117.024 101.257 117.505 102.906 117.65 104.6C117.795 106.293 117.602 107.999 117.083 109.618L116.905 110.168L116.804 109.601C116.545 108.231 115.804 106.999 114.715 106.129L114.909 105.964C115.312 106.714 115.558 107.539 115.632 108.387C115.703 109.222 115.718 110.059 115.679 110.896C115.618 111.722 115.601 112.55 115.628 113.378C115.658 113.782 115.759 114.178 115.928 114.546C116.116 114.903 116.377 115.217 116.694 115.468C117.942 116.555 119.397 117.379 120.788 118.289C121.496 118.731 122.17 119.225 122.806 119.765C123.448 120.3 123.97 120.964 124.337 121.715C123.955 120.975 123.422 120.323 122.772 119.803C122.126 119.281 121.445 118.805 120.733 118.378C119.325 117.502 117.844 116.711 116.571 115.607C116.232 115.343 115.953 115.01 115.751 114.63C115.57 114.241 115.459 113.823 115.425 113.395C115.39 112.561 115.4 111.725 115.455 110.891C115.489 110.065 115.468 109.237 115.391 108.413C115.314 107.599 115.074 106.809 114.685 106.091L114.355 105.52L114.875 105.943C116.024 106.844 116.81 108.129 117.087 109.563H116.808C117.796 106.366 117.492 102.909 115.962 99.9324L115.577 99.1796L116.212 99.7379C116.868 100.287 117.438 100.932 117.904 101.65C118.392 102.378 118.641 103.239 118.618 104.115L118.331 104.082C118.688 102.107 118.769 100.093 118.572 98.0968C118.389 96.0977 117.902 94.1382 117.13 92.2854C116.379 90.4173 115.126 88.7936 113.509 87.5947C112.686 87.0182 111.768 86.5889 110.798 86.3259C109.82 86.059 108.808 85.9421 107.795 85.979Z" fill="#263238"/>
<path d="M99.4374 110.62C98.9341 109.775 98.4604 108.903 98.0417 108.011C97.826 107.588 97.6187 107.114 97.4453 106.649C97.2538 106.186 97.112 105.704 97.0223 105.211H97.3184C97.247 105.653 97.2074 106.1 97.2 106.547C97.1871 106.988 97.2326 107.429 97.3353 107.859L97.5637 108.743L97.0393 108.007C96.5882 107.385 96.224 106.705 95.9565 105.985C95.6961 105.269 95.5118 104.527 95.4066 103.773C95.3103 103.023 95.2707 102.266 95.2882 101.51C95.3109 100.756 95.3958 100.004 95.542 99.264C95.4645 100.01 95.4377 100.76 95.4616 101.51C95.4769 102.254 95.5476 102.997 95.6731 103.73C95.7974 104.455 95.9856 105.167 96.2356 105.858C96.5085 106.541 96.8651 107.187 97.2973 107.782L96.997 107.93C96.8935 107.47 96.8522 106.998 96.8743 106.526C96.8871 106.062 96.9337 105.6 97.0139 105.143L97.1704 104.242L97.31 105.147C97.3987 105.622 97.526 106.089 97.6906 106.543C97.8513 107.003 98.029 107.46 98.2235 107.914C98.6084 108.819 99.0102 109.732 99.4374 110.62Z" fill="#263238"/>
<path d="M135.032 136.937C134.017 138.206 133.877 139.961 134.63 141.932C135.483 143.864 136.783 145.565 138.424 146.894C140.065 148.223 141.999 149.142 144.066 149.575C146.151 149.905 147.873 149.397 148.867 148.15C149.861 146.902 150.021 145.125 149.269 143.154C148.416 141.223 147.115 139.522 145.474 138.193C143.833 136.864 141.899 135.944 139.832 135.512C137.747 135.182 136.043 135.689 135.032 136.937ZM140.069 136.62C143.339 137.136 146.951 140.063 148.135 143.15C149.319 146.238 147.632 148.327 144.362 147.803C141.093 147.278 137.485 144.36 136.296 141.272C135.108 138.185 136.796 136.099 140.069 136.62Z" fill="#BA68C8"/>
<path opacity="0.4" d="M135.027 136.937C134.017 138.206 133.877 139.961 134.63 141.932C135.483 143.864 136.783 145.565 138.424 146.894C140.065 148.223 141.999 149.142 144.066 149.575C146.151 149.905 147.873 149.397 148.871 148.145C149.869 146.893 150.021 145.125 149.268 143.154C148.416 141.223 147.115 139.522 145.474 138.193C143.833 136.864 141.899 135.944 139.832 135.512C137.747 135.182 136.042 135.689 135.027 136.937ZM140.069 136.62C143.338 137.136 146.951 140.063 148.135 143.15C149.319 146.238 147.632 148.327 144.362 147.803C141.093 147.278 137.485 144.36 136.296 141.272C135.108 138.185 136.795 136.099 140.069 136.62Z" fill="white"/>
<path opacity="0.1" d="M134.63 141.932C134.097 140.716 134.013 139.351 134.393 138.079C134.241 138.586 133.928 140.067 135.061 142.237C136.554 145.092 139.908 147.93 143.618 148.89C147.327 149.85 149.272 147.701 149.662 146.373C149.55 147.024 149.273 147.636 148.858 148.149C147.847 149.397 146.143 149.905 144.057 149.575C141.991 149.142 140.057 148.223 138.416 146.894C136.775 145.565 135.474 143.864 134.621 141.932H134.63Z" fill="#BA68C8"/>
<path opacity="0.3" d="M134.63 141.932C134.097 140.716 134.013 139.351 134.393 138.079C134.241 138.586 133.928 140.067 135.061 142.237C136.554 145.092 139.908 147.93 143.618 148.89C147.327 149.85 149.272 147.701 149.662 146.373C149.55 147.024 149.273 147.636 148.858 148.149C147.847 149.397 146.143 149.905 144.057 149.575C141.991 149.142 140.057 148.223 138.416 146.894C136.775 145.565 135.474 143.864 134.621 141.932H134.63Z" fill="#BA68C8"/>
<path opacity="0.1" d="M148.215 146.377C148.638 145.553 148.638 144.44 148.143 143.15C146.959 140.063 143.347 137.136 140.078 136.62C138.75 136.408 137.679 136.62 136.96 137.174C138.229 135.994 140.027 135.943 142.324 136.878C144.858 137.897 146.954 139.774 148.245 142.182C149.061 143.814 148.96 145.455 148.215 146.377Z" fill="#BA68C8"/>
<path opacity="0.2" d="M148.215 146.377C148.638 145.553 148.638 144.44 148.143 143.15C146.959 140.063 143.347 137.136 140.078 136.62C138.75 136.408 137.679 136.62 136.96 137.174C138.229 135.994 140.027 135.943 142.324 136.878C144.858 137.897 146.954 139.774 148.245 142.182C149.061 143.814 148.96 145.455 148.215 146.377Z" fill="#BA68C8"/>
<path opacity="0.6" d="M136.846 136.264C137.011 136.29 137.231 136.404 136.977 136.645C136.377 137.176 135.93 137.858 135.683 138.62C135.222 140.278 136.017 142.981 139.837 146.331C138.188 145.414 136.803 144.089 135.814 142.482C134.495 140.219 134.685 138.908 135.277 137.563C135.628 136.759 136.428 136.197 136.846 136.264Z" fill="white"/>
<path d="M144.638 120.26C148.622 113.522 154.958 102.669 158.358 100.651C161.759 98.6339 168.217 99.6405 168.59 98.3674L179.629 107.309C178.466 107.939 180.788 114.046 179.519 117.794C178.25 121.541 168.991 130.106 163.188 135.283C160.321 137.846 149.709 146.919 148.406 147.646L148.3 147.705L148.076 147.828C147.112 148.215 146.059 148.325 145.035 148.145C141.3 147.557 137.181 144.216 135.827 140.689C135.412 139.732 135.3 138.67 135.506 137.648L135.582 137.398C135.582 137.364 135.603 137.326 135.616 137.288C136.056 135.858 142.679 123.572 144.638 120.26Z" fill="#BA68C8"/>
<path opacity="0.5" d="M144.638 120.26C148.622 113.522 154.958 102.669 158.358 100.651C161.759 98.6339 168.217 99.6405 168.59 98.3674L179.629 107.309C178.466 107.939 180.788 114.046 179.519 117.794C178.25 121.541 168.991 130.106 163.188 135.283C160.321 137.846 149.709 146.919 148.406 147.646L148.3 147.705L148.076 147.828C147.112 148.215 146.059 148.325 145.035 148.145C141.3 147.557 137.181 144.216 135.827 140.689C135.412 139.732 135.3 138.67 135.506 137.648L135.582 137.398C135.582 137.364 135.603 137.326 135.616 137.288C136.056 135.858 142.679 123.572 144.638 120.26Z" fill="white"/>
<path opacity="0.3" d="M179.515 117.794C179.303 118.417 179.019 119.013 178.669 119.57C177.126 120.077 175.481 120.185 173.885 119.883C167.236 118.83 159.894 112.883 157.487 106.598C156.858 105.101 156.621 103.467 156.798 101.853C157.271 101.395 157.795 100.992 158.358 100.651C161.742 98.6381 168.218 99.6405 168.59 98.3674L179.629 107.309C178.466 107.939 180.784 114.046 179.515 117.794Z" fill="white"/>
<path opacity="0.2" d="M179.515 107.385C179.473 107.43 179.438 107.481 179.413 107.537C179.395 107.57 179.38 107.604 179.367 107.639C178.859 109.094 180.636 114.406 179.502 117.79C179.409 118.027 179.295 118.285 179.172 118.555C177.083 122.607 168.598 130.428 163.172 135.279C160.304 137.842 149.692 146.915 148.389 147.642L148.283 147.701L148.059 147.824H148.03C147.168 148.149 146.243 148.268 145.327 148.171L145.018 148.128C143.374 147.824 141.816 147.163 140.454 146.191C139.343 145.415 138.339 144.495 137.468 143.455L137.435 143.412C139.253 145.015 144.917 147.316 148.127 145.358C151.337 143.4 175.678 120.484 176.465 117.866C177.252 115.248 176.63 107.351 176.63 107.351C177.507 107.333 178.379 107.211 179.227 106.987L179.608 107.292C179.572 107.318 179.541 107.349 179.515 107.385Z" fill="#BA68C8"/>
<path opacity="0.3" d="M163.95 134.619L163.189 135.296C160.321 137.859 149.709 146.931 148.406 147.659L148.3 147.718L148.076 147.841C147.299 148.141 146.467 148.271 145.636 148.221H145.577L145.365 148.2C145.255 148.2 145.149 148.179 145.039 148.158C143.554 147.888 142.139 147.321 140.878 146.492L140.801 146.445L140.51 146.242L140.26 146.069C139.875 145.751 139.507 145.451 139.16 145.193L139.139 145.172C145.006 149.423 158.874 137.356 163.95 134.619Z" fill="#BA68C8"/>
<path d="M169.398 93.2581L168.696 97.8641C168.44 98.8362 168.527 99.8666 168.941 100.782C169.694 102.47 170.835 103.956 172.272 105.12C173.708 106.283 175.398 107.091 177.205 107.478C178.185 107.686 179.207 107.555 180.103 107.106L184.485 105.477L169.398 93.2581Z" fill="#BA68C8"/>
<path opacity="0.45" d="M169.398 93.2581L168.696 97.8641C168.44 98.8362 168.527 99.8666 168.941 100.782C169.694 102.47 170.835 103.956 172.272 105.12C173.708 106.283 175.398 107.091 177.205 107.478C178.185 107.686 179.207 107.555 180.103 107.106L184.485 105.477L169.398 93.2581Z" fill="white"/>
<path opacity="0.2" d="M180.098 107.101C180.015 107.147 179.929 107.188 179.84 107.224L179.629 107.309C178.847 107.572 178.011 107.629 177.201 107.474C177.024 107.448 176.85 107.41 176.672 107.368C176.918 107.368 179.828 107.262 180.005 106.446C180.183 105.63 178.056 104.953 175.687 102.948L177.874 100.123L184.48 105.473L180.098 107.101Z" fill="#BA68C8"/>
<g opacity="0.4">
<path d="M162.203 101.379C164.238 100.956 168.011 101.379 168.806 100.41C169.601 99.4418 169.969 96.13 169.969 96.13L171.153 98.3252C170.871 99.5762 170.356 100.763 169.635 101.823C168.565 103.219 165.041 102.855 162.483 103.172C159.924 103.489 157.276 105.608 155.521 108.671C154.023 111.297 137.634 137.893 136.2 141.492C136.061 141.217 135.936 140.935 135.828 140.646C135.614 140.115 135.472 139.557 135.405 138.988C136.851 135.406 152.323 111.192 154.349 107.266C156.823 102.534 160.173 101.815 162.203 101.379Z" fill="white"/>
<path d="M161.67 111.124C160.842 111.842 160.129 112.684 159.556 113.619C160.028 114.071 160.527 114.495 161.049 114.888C161.585 114.099 162.201 113.367 162.889 112.706C162.466 112.169 161.992 111.585 161.67 111.124ZM156.273 108.924C156.927 110.489 157.873 111.915 159.061 113.124C159.718 112.181 160.488 111.322 161.353 110.566C160.342 109.038 159.581 107.359 159.099 105.592C157.977 106.537 157.022 107.663 156.273 108.924Z" fill="white"/>
</g>
<path d="M170.366 90.8854C169.178 92.353 169.013 94.4297 169.897 96.7349C170.897 98.9986 172.422 100.992 174.345 102.549C176.268 104.107 178.535 105.185 180.957 105.693C183.397 106.082 185.394 105.486 186.582 104.022C187.771 102.559 187.936 100.478 187.048 98.1729C186.049 95.9087 184.525 93.9151 182.602 92.3572C180.68 90.7993 178.413 89.722 175.991 89.2147C173.551 88.8256 171.55 89.4219 170.366 90.8854ZM176.287 90.5132C180.119 91.1222 184.349 94.5482 185.736 98.1687C187.124 101.789 185.148 104.23 181.316 103.625C177.484 103.02 173.259 99.5898 171.868 95.9693C170.476 92.3488 172.443 89.9041 176.271 90.5132H176.287Z" fill="#BA68C8"/>
<path opacity="0.4" d="M170.366 90.8853C169.178 92.353 169.013 94.4297 169.897 96.7348C170.897 98.9986 172.422 100.992 174.345 102.549C176.268 104.107 178.535 105.185 180.957 105.693C183.397 106.082 185.394 105.486 186.582 104.022C187.771 102.559 187.936 100.478 187.048 98.1729C186.049 95.9087 184.525 93.915 182.602 92.3571C180.68 90.7993 178.413 89.722 175.991 89.2146C173.551 88.8297 171.55 89.4219 170.366 90.8853ZM176.287 90.5131C180.119 91.118 184.349 94.5481 185.736 98.1687C187.124 101.789 185.148 104.23 181.316 103.625C177.484 103.02 173.255 99.5898 171.868 95.9693C170.48 92.3488 172.443 89.9041 176.271 90.5131H176.287Z" fill="white"/>
<path d="M185.472 102.484C187.198 100.353 185.606 96.202 181.916 93.2127C178.225 90.2235 173.835 89.5276 172.108 91.6586C170.382 93.7895 171.974 97.9402 175.664 100.929C179.355 103.919 183.745 104.615 185.472 102.484Z" fill="#BA68C8"/>
<path opacity="0.2" d="M185.472 102.484C187.198 100.353 185.606 96.202 181.916 93.2127C178.225 90.2235 173.835 89.5276 172.108 91.6586C170.382 93.7895 171.974 97.9402 175.664 100.929C179.355 103.919 183.745 104.615 185.472 102.484Z" fill="white"/>
<path opacity="0.1" d="M185.472 102.484C187.198 100.353 185.606 96.202 181.916 93.2127C178.225 90.2235 173.835 89.5276 172.108 91.6586C170.382 93.7895 171.974 97.9402 175.664 100.929C179.355 103.919 183.745 104.615 185.472 102.484Z" fill="black"/>
<path opacity="0.1" d="M169.897 96.7348C169.254 95.043 169.169 93.5119 169.622 92.2261C169.444 92.8182 169.076 94.5523 170.404 97.0943C172.151 100.44 176.085 103.764 180.428 104.894C184.772 106.023 187.056 103.502 187.513 101.933C187.381 102.695 187.058 103.411 186.574 104.014C185.385 105.477 183.389 106.074 180.949 105.685C178.526 105.176 176.26 104.099 174.337 102.541C172.414 100.983 170.889 98.9901 169.888 96.7263L169.897 96.7348Z" fill="#BA68C8"/>
<path opacity="0.3" d="M169.897 96.7348C169.254 95.043 169.169 93.5119 169.622 92.2261C169.444 92.8182 169.076 94.5523 170.404 97.0943C172.151 100.44 176.085 103.764 180.428 104.894C184.772 106.023 187.056 103.502 187.513 101.933C187.381 102.695 187.058 103.411 186.574 104.014C185.385 105.477 183.389 106.074 180.949 105.685C178.526 105.176 176.26 104.099 174.337 102.541C172.414 100.983 170.889 98.9901 169.888 96.7263L169.897 96.7348Z" fill="#BA68C8"/>
<path opacity="0.1" d="M185.808 101.95C186.29 100.986 186.299 99.6829 185.719 98.1729C184.332 94.5524 180.103 91.1264 176.271 90.5174C174.71 90.272 173.458 90.5174 172.616 91.1645C174.126 89.7814 176.211 89.7264 178.901 90.8219C181.867 92.0158 184.318 94.2154 185.825 97.0351C186.794 98.9427 186.705 100.867 185.808 101.95Z" fill="#BA68C8"/>
<path opacity="0.2" d="M185.808 101.95C186.29 100.986 186.299 99.6829 185.719 98.1729C184.332 94.5524 180.103 91.1264 176.271 90.5174C174.71 90.272 173.458 90.5174 172.616 91.1645C174.126 89.7814 176.211 89.7264 178.901 90.8219C181.867 92.0158 184.318 94.2154 185.825 97.0351C186.794 98.9427 186.705 100.867 185.808 101.95Z" fill="#BA68C8"/>
<path opacity="0.6" d="M172.498 90.0987C172.684 90.1283 172.946 90.2594 172.646 90.5216C171.943 91.1433 171.42 91.9424 171.132 92.8352C170.59 94.7766 171.521 97.9488 176 101.874C174.073 100.807 172.45 99.2669 171.284 97.3989C169.74 94.747 169.96 93.2116 170.654 91.6382C171.055 90.6781 172.003 90.0183 172.498 90.0987Z" fill="white"/>
<path d="M177.092 90.6781C176.462 93.7852 175.565 96.832 174.41 99.7844C174.194 99.5603 173.987 99.3319 173.784 99.095C174.461 97.3527 175.042 95.5751 175.527 93.77C175.814 92.6957 176.077 91.6087 176.297 90.509C178.018 82.1006 177.773 73.1677 175.146 64.9919C175.112 64.8777 175.235 64.7001 175.294 64.8608C177.232 70.0999 178.186 75.6521 178.107 81.2377C178.064 84.4093 177.724 87.57 177.092 90.6781Z" fill="#455A64"/>
<path d="M184.02 69.1199C183.488 76.7851 181.974 84.3503 179.515 91.6298C178.83 93.6769 178.079 95.6944 177.261 97.6823C176.8 98.8116 176.309 99.9282 175.806 101.036C175.595 100.871 175.383 100.702 175.188 100.52C176.561 97.5102 177.774 94.4296 178.822 91.2914C179.872 88.148 180.757 84.9517 181.474 81.7156C183.621 72.0885 184.275 62.1882 183.411 52.3623C183.411 52.2355 183.55 52.1424 183.572 52.3031C184.258 57.8815 184.408 63.5129 184.02 69.1199Z" fill="#455A64"/>
<path d="M168.328 73.5018C171.64 73.8783 177.333 76.619 177.553 82.1852C173.827 82.8281 172.515 77.5622 168.328 73.5018Z" fill="#37474F"/>
<path d="M196.366 60.9822C192.136 61.1302 184.633 64.0359 183.8 71.0782C188.461 72.2667 190.652 65.7151 196.366 60.9822Z" fill="#37474F"/>
<path d="M190.576 81.6396C187.67 81.2716 182.243 82.422 180.898 87.138C183.94 88.4534 186.16 84.2281 190.576 81.6396Z" fill="#37474F"/>
<path d="M169.364 61.0795C168.62 62.4753 170.608 63.1308 171.652 63.3254C166.915 63.9768 168.637 68.274 172.498 65.7616C170.963 69.6402 176.208 69.9447 175.497 65.3387C178.881 66.9586 180.996 63.4988 176.525 62.9701C180.488 59.468 175.281 58.5502 173.75 61.7647C172.748 60.665 170.464 59.7556 169.364 61.0795Z" fill="#BA68C8"/>
<path d="M174.486 63.0844C174.289 63.0562 174.087 63.075 173.898 63.1393C173.676 63.2266 173.481 63.3728 173.336 63.5623C173.271 63.6351 173.224 63.7217 173.197 63.8155C173.171 63.9092 173.166 64.0078 173.184 64.1037C173.289 64.497 173.674 64.5013 173.991 64.404C174.209 64.3443 174.417 64.2501 174.605 64.1248C174.794 63.9978 174.935 63.8098 175.002 63.5919C175.019 63.2747 174.77 63.1393 174.486 63.0844Z" fill="#FAFAFA"/>
<path d="M184.21 46.7116C185.745 47.1346 184.861 49.021 184.29 49.9176C187.999 46.902 189.962 51.0977 185.491 52.1974C189.374 53.7285 186.011 57.7635 183.127 54.088C181.993 57.6662 178.03 56.8372 180.695 53.2421C175.429 53.7412 178.318 49.3128 181.71 50.3914C181.596 48.8983 182.509 46.6186 184.21 46.7116Z" fill="#BA68C8"/>
<path d="M182.175 51.8209C182.286 51.6614 182.43 51.5285 182.598 51.4318C182.821 51.3174 183.073 51.2704 183.322 51.2964C183.419 51.2992 183.514 51.3238 183.601 51.3684C183.687 51.4131 183.762 51.4767 183.821 51.5544C184.036 51.9013 183.774 52.1846 183.487 52.3496C183.294 52.4682 183.085 52.5553 182.865 52.6076C182.643 52.6589 182.411 52.6336 182.205 52.5357C182.107 52.4446 182.048 52.3183 182.043 52.1844C182.037 52.0505 182.085 51.9198 182.175 51.8209Z" fill="#FAFAFA"/>
<path d="M182.608 122.963C183.282 122.09 183.803 121.108 184.148 120.061C184.852 117.972 184.865 115.712 184.186 113.615C184.272 114.674 184.265 115.738 184.165 116.796C184.062 117.835 183.845 118.859 183.517 119.85C182.868 121.855 181.701 123.654 180.134 125.065C181.1 124.55 181.944 123.833 182.608 122.963ZM187.464 111.2C187.678 112.865 187.719 114.547 187.586 116.221C187.45 117.876 187.116 119.509 186.592 121.085C185.571 124.277 183.655 127.11 181.073 129.248C182.547 128.384 183.832 127.233 184.854 125.864C185.886 124.486 186.688 122.949 187.227 121.313C188.318 118.042 188.4 114.519 187.464 111.2Z" fill="#455A64"/>
</svg>
